<svg width="749" height="749" viewBox="0 0 749 749" fill="none" xmlns="http://www.w3.org/2000/svg">
<path d="M331.109 437.258H321.44C322.722 436.918 323.664 435.78 324.044 435.23C324.816 434.131 325.555 431.331 326.49 427.975L337.291 389.759C341.118 402.633 344.945 415.513 348.772 428.388C349.36 430.389 350.427 432.973 352.435 435.479C352.965 436.146 353.514 436.735 354.044 437.258H341.929C343.034 436.552 344.977 435.073 345.056 433.15C345.075 432.64 344.971 432.025 344.827 431.207C344.624 430.016 344.356 429.048 344.147 428.388L342.505 422.494C342.374 422.029 341.955 421.708 341.471 421.708H331.207C330.729 421.708 330.311 422.029 330.173 422.487L328.309 429.035C327.799 430.841 327.537 433.078 327.537 433.078C327.498 433.431 327.439 434.484 328.1 435.512C329.094 437.068 330.873 437.239 331.096 437.258H331.109ZM341.478 418.503L336.964 402.227C336.82 401.71 336.087 401.71 335.943 402.227L331.312 418.503C331.214 418.843 331.469 419.177 331.822 419.177H340.974C341.327 419.177 341.582 418.843 341.484 418.503H341.478Z" fill="white"/>
<path d="M377.196 238.854V254.691C377.196 255.385 377.758 255.947 378.452 255.947H383.94C384.64 255.947 385.615 255.836 386.583 255.3C389.651 253.599 389.605 249.38 389.599 249.203V265.368C389.644 262.535 388.441 260.049 386.387 259.002C385.543 258.571 384.679 258.446 383.94 258.453H378.452C377.758 258.453 377.196 259.016 377.196 259.709V273.761C377.196 274.421 377.189 276.364 377.182 277.653C377.182 278.333 377.719 278.896 378.399 278.922C378.955 278.942 379.531 278.961 379.734 278.961H384.941C385.922 279.007 386.753 278.876 387.433 278.687C392.673 277.241 394.538 270.699 394.767 269.849L392.117 281.493H368.449C368.953 281.238 369.47 280.904 369.96 280.479C372.688 278.104 372.845 276.842 372.845 273.309V243.145C372.845 239.796 373.185 237.12 369.888 235.472C369.509 235.282 369.038 235.125 368.456 235.066H392.124L392.464 245.239C392.379 244.637 391.568 239.652 387.734 238.062C387.198 237.84 386.491 237.644 385.621 237.598H378.452C377.758 237.598 377.196 238.161 377.196 238.854Z" fill="white"/>
<path d="M425.428 313.168V329.006C425.428 329.699 425.977 330.262 426.651 330.262H431.996C432.676 330.262 433.625 330.15 434.567 329.614C437.55 327.913 437.51 323.694 437.504 323.517V339.682C437.55 336.849 436.379 334.363 434.377 333.317C433.559 332.885 432.715 332.76 431.996 332.767H426.651C425.977 332.767 425.428 333.33 425.428 334.023V348.075C425.428 348.735 425.421 350.678 425.415 351.967C425.415 352.647 425.938 353.21 426.599 353.236C427.142 353.256 427.704 353.275 427.894 353.275H432.964C433.919 353.321 434.73 353.19 435.391 353.001C440.493 351.555 442.305 345.013 442.534 344.163L439.957 355.807H416.917C417.408 355.552 417.911 355.218 418.389 354.793C421.045 352.418 421.195 351.156 421.195 347.623V317.453C421.195 314.103 421.529 311.428 418.317 309.779C417.951 309.59 417.493 309.433 416.917 309.374H439.957L440.291 319.546C440.206 318.944 439.421 313.96 435.692 312.37C435.168 312.147 434.482 311.951 433.638 311.905H426.658C425.984 311.905 425.434 312.468 425.434 313.161L425.428 313.168Z" fill="white"/>
<path d="M328.224 470.287V485.942C328.224 486.661 328.806 487.237 329.519 487.237H333.817C334.838 487.263 335.557 486.988 335.976 486.766C337.808 485.817 338.835 483.495 338.658 480.865V496.585C338.815 493.831 337.749 491.43 335.865 490.501C335.44 490.292 334.759 490.05 333.811 490.076H329.513C328.793 490.076 328.218 490.658 328.218 491.371V504.664C328.218 509.793 329.251 511.062 330.259 511.834C331.05 512.442 332.659 512.881 332.659 512.881H319.478C319.87 512.802 320.217 512.678 320.518 512.527C323.821 510.898 323.874 505.397 323.867 504.664V474.664C323.867 469.594 322.422 467.867 320.276 466.788C319.936 466.617 319.903 466.598 319.478 466.441H342.328L342.622 476.646C342.557 476.168 341.779 471.164 337.801 469.496C336.807 469.077 335.826 468.959 334.988 468.979H329.513C328.793 468.979 328.218 469.561 328.218 470.274L328.224 470.287Z" fill="white"/>
<path d="M454.65 390.38L455.441 405.04C454.643 401.39 453.452 398.884 452.183 397.033C450.358 394.364 447.369 392.781 444.497 392.781C440.585 392.781 437.615 395.123 435.574 399.8C433.867 403.751 433.016 408.455 433.016 413.911C433.016 418.339 433.585 422.382 434.717 426.033C435.849 429.683 437.334 432.365 439.165 434.066C440.997 435.767 442.881 436.617 444.817 436.617C445.949 436.617 447.042 436.401 448.101 435.969C448.114 435.969 448.121 435.963 448.134 435.956C450.005 435.184 451.163 433.287 451.163 431.266V420.629C451.163 414.84 450.679 413.407 447.133 412.55H459.026C455.108 413.616 455.585 415.886 455.585 420.629V432.208C455.585 434.007 454.637 435.675 453.106 436.617C452.21 437.167 451.326 437.611 450.443 437.958C448.756 438.619 446.872 438.952 444.804 438.952C438.871 438.952 434.364 436.074 431.283 430.324C428.973 426.006 427.815 421.035 427.815 415.396C427.815 411.307 428.463 407.395 429.765 403.647C431.302 399.192 433.422 395.77 436.104 393.376C438.354 391.388 441.01 390.4 444.078 390.4C445.197 390.4 446.211 390.537 447.127 390.812C449.05 391.388 450.783 392.48 451.012 392.624C452.105 393.337 452.353 393.697 452.831 393.625C453.793 393.481 454.342 391.806 454.656 390.4L454.65 390.38Z" fill="white"/>
<path d="M299.283 411.15H310.385C311.261 411.15 311.968 410.444 311.968 409.567V397.864C311.968 390.805 311.66 391.08 307.572 389.608H320.708C317.332 390.583 316.312 390.511 316.312 397.864V427.832C316.312 433.484 316.528 434.949 320.708 436.048H307.572C311.667 434.295 311.942 432.98 311.968 427.832V415.271C311.968 414.395 311.261 413.688 310.385 413.688H299.283C298.407 413.688 297.7 414.395 297.7 415.271V427.832C297.7 432.289 299.172 435.027 302.116 436.048H288.954C293.049 434.779 293.35 434.465 293.35 427.832V397.864C293.35 391.492 292.853 390.975 288.954 389.608H302.11C297.962 390.766 297.694 391.06 297.694 397.864V409.567C297.694 410.444 298.4 411.15 299.277 411.15H299.283Z" fill="white"/>
<path d="M346.312 256.013H357.413C358.29 256.013 358.997 255.306 358.997 254.43V242.72C358.997 235.662 358.689 235.936 354.6 234.464H367.736C364.361 235.439 363.34 235.367 363.34 242.72V272.688C363.34 278.34 363.556 279.805 367.736 280.904H354.6C358.696 279.151 358.97 277.836 358.997 272.688V260.128C358.997 259.251 358.29 258.545 357.413 258.545H346.312C345.436 258.545 344.729 259.251 344.729 260.128V272.688C344.729 277.145 346.201 279.884 349.145 280.904H335.989C340.084 279.635 340.385 279.321 340.385 272.688V242.72C340.385 236.348 339.888 235.832 335.989 234.464H349.145C344.997 235.622 344.729 235.917 344.729 242.72V254.423C344.729 255.3 345.436 256.006 346.312 256.006V256.013Z" fill="white"/>
<path d="M391.293 436.107H378.137C382.448 434.655 382.533 434.125 382.533 427.89V397.89C382.533 393.511 381.068 390.773 378.137 389.674H391.293C388.349 390.773 386.877 393.511 386.877 397.89V427.89C386.877 433.255 387.087 434.831 391.293 436.107Z" fill="white"/>
<path d="M383.979 466.604H390.855C391.751 466.604 392.575 467.095 393 467.887L410.27 499.921C410.486 500.321 411.088 500.164 411.088 499.719V474.657C411.088 468.292 410.872 467.965 406.738 466.611H417.427C413.469 467.769 413.077 468.358 413.077 474.657V513.803L392.824 477.85C392.608 477.464 392.012 477.614 392.012 478.066V505.004C392.012 511.736 392.235 511.912 396.363 513.051H385.674C389.71 512.115 390.024 511.939 390.024 505.004V472.708C390.024 469.843 388.421 467.802 383.979 466.611V466.604Z" fill="white"/>
<path d="M391.097 390.439H397.972C398.868 390.439 399.693 390.93 400.118 391.721L417.388 423.756C417.604 424.155 418.206 423.998 418.206 423.553V398.492C418.206 392.127 417.99 391.8 413.855 390.446H424.545C420.587 391.603 420.194 392.192 420.194 398.492V437.638L399.941 401.684C399.725 401.298 399.13 401.449 399.13 401.9V428.839C399.13 435.57 399.352 435.747 403.48 436.885H392.791C396.827 435.95 397.141 435.773 397.141 428.839V396.542C397.141 393.677 395.539 391.636 391.097 390.446V390.439Z" fill="white"/>
<path d="M397.501 234.157H404.376C405.273 234.157 406.097 234.648 406.522 235.439L423.792 267.474C424.008 267.873 424.61 267.716 424.61 267.271V242.203C424.61 235.838 424.394 235.511 420.26 234.157H430.949C426.991 235.315 426.599 235.904 426.599 242.203V281.349L406.345 245.396C406.13 245.01 405.534 245.16 405.534 245.612V272.55C405.534 279.282 405.757 279.458 409.884 280.597H399.195C403.232 279.661 403.546 279.485 403.546 272.55V240.247C403.546 237.382 401.943 235.341 397.501 234.15V234.157Z" fill="white"/>
<path d="M339.338 308.896C343.322 308.896 346.776 311.186 349.701 315.765C352.625 320.344 354.084 326.055 354.084 332.904C354.084 339.754 352.612 345.818 349.668 350.476C346.724 355.133 343.159 357.462 338.979 357.462C334.798 357.462 331.201 355.192 328.322 350.646C325.444 346.099 324.005 340.225 324.005 333.009C324.005 325.794 325.666 319.618 328.989 314.96C331.874 310.918 335.322 308.896 339.338 308.896ZM338.907 310.087C336.159 310.087 333.955 312.939 332.293 316.02C330.226 319.854 329.192 325.473 329.192 332.872C329.192 340.27 330.265 346.282 332.411 350.371C334.059 353.478 336.231 356.337 338.933 356.337C341.818 356.337 344.199 353.328 346.076 349.926C347.954 346.524 348.896 341.16 348.896 333.833C348.896 325.885 347.862 319.965 345.795 316.06C344.134 312.952 341.837 310.093 338.913 310.093L338.907 310.087Z" fill="white"/>
<path d="M419.043 356.429H412.789C411.729 356.429 410.768 355.807 410.31 354.826L401.105 335.07C401.001 334.854 400.791 334.717 400.556 334.717H398.417C398.077 334.717 397.808 334.998 397.808 335.345V348.212C397.808 353.779 398.037 355.33 402.106 356.429H389.298C393.439 355.48 393.596 354.93 393.596 348.212V318.212C393.596 311.493 393.458 311.336 389.298 309.995H400.19C403.362 309.995 405.704 310.355 407.209 311.075C408.713 311.794 409.996 313.116 411.042 315.046C412.089 316.975 412.619 319.278 412.619 321.947C412.619 324.799 412.017 327.279 410.82 329.378C409.767 331.223 408.203 332.597 406.136 333.487C405.665 333.689 405.456 334.252 405.672 334.73L411.428 347.152C412.841 350.214 415.589 356.291 419.036 356.435L419.043 356.429ZM397.808 331.302C397.808 332.002 398.358 332.59 399.038 332.597C401.89 332.597 404.749 332.263 406.195 330.347C407.641 328.43 407.66 325.355 407.66 322.392C407.66 319.428 408.014 316.249 406.843 314.437C405.672 312.625 404.533 312.115 401.347 311.729C400.634 311.644 399.941 311.618 398.966 311.696C398.312 311.748 397.808 312.311 397.808 312.985V331.308V331.302Z" fill="white"/>
<path d="M367.527 466.434H378.399C374.415 467.802 373.983 468.168 373.983 474.925V493.759C373.983 498.417 373.676 502.028 373.068 504.599C372.459 507.17 371.255 509.368 369.47 511.206C367.677 513.044 365.244 513.96 362.162 513.96C358.813 513.96 356.268 513.083 354.528 511.324C352.795 509.564 351.558 507.202 350.839 504.232C350.355 502.198 350.113 498.391 350.113 492.797V474.644C350.113 467.756 349.759 467.658 345.651 466.428H358.924C354.175 467.952 354.424 467.926 354.463 474.644V494.884C354.463 496.69 354.574 498.757 354.79 501.086C355.006 503.415 355.405 505.227 355.981 506.529C356.556 507.83 357.38 508.903 358.46 509.747C359.539 510.591 360.867 511.016 362.437 511.016C364.446 511.016 366.244 510.355 367.828 509.028C369.411 507.706 370.497 506.005 371.079 503.945C371.661 501.877 371.949 498.378 371.949 493.445V474.644C371.949 467.873 371.484 467.631 367.533 466.428L367.527 466.434Z" fill="white"/>
<path d="M372.675 309.943H383.547C379.564 311.31 379.132 311.677 379.132 318.434V337.268C379.132 341.926 378.824 345.537 378.216 348.107C377.608 350.678 376.404 352.876 374.618 354.715C372.826 356.553 370.392 357.469 367.311 357.469C363.962 357.469 361.417 356.592 359.677 354.832C357.943 353.073 356.707 350.711 355.987 347.741C355.503 345.707 355.261 341.899 355.261 336.306V318.153C355.261 311.264 354.908 311.166 350.8 309.936H364.073C359.323 311.461 359.572 311.435 359.611 318.153V338.393C359.611 340.199 359.722 342.266 359.938 344.595C360.154 346.923 360.553 348.735 361.129 350.037C361.705 351.339 362.529 352.412 363.608 353.256C364.688 354.1 366.016 354.525 367.586 354.525C369.594 354.525 371.393 353.864 372.976 352.536C374.559 351.215 375.645 349.514 376.227 347.453C376.809 345.386 377.097 341.886 377.097 336.954V318.153C377.097 311.382 376.633 311.14 372.682 309.936L372.675 309.943Z" fill="white"/>
<path d="M378.327 390.91C375.756 391.433 376.142 391.486 373.728 398.891L363.013 438.409L350.669 398.374C348.536 392.264 348.484 391.95 345.802 390.91H358.349C355.313 391.499 354.012 391.865 354.712 395.214C354.947 396.333 355.3 398.211 355.994 400.631L362.921 424.777C363.17 425.647 364.406 425.633 364.642 424.763L371.053 400.978C371.759 398.328 371.982 396.484 372.119 395.463C372.544 392.238 371.727 391.44 368.855 390.91H378.321H378.327Z" fill="white"/>
<path d="M335.989 234C334.328 234.554 333.202 236.004 332.614 238.35C332.404 239.181 331.835 241.059 331.188 244.068L322.625 281.5L315.278 253.906C315.134 253.357 314.349 253.37 314.225 253.92L307.768 281.493L297.825 242.936C296.512 237.607 294.964 234.628 293.18 234H304.55C302.967 234.445 301.181 234.752 301.541 238.075C301.658 239.168 301.521 238.403 302.535 243.59L308.05 267.356C308.18 267.919 308.978 267.919 309.109 267.356L313.42 248.601C313.59 247.875 313.59 247.116 313.42 246.384L312.773 243.59L312.047 240.476C310.719 234.739 310.405 234.628 307.768 234H319.727C318.601 234.164 316.331 235.354 316.462 238.318C316.528 239.698 316.475 239.56 317.483 244.414L322.834 267.363C322.965 267.925 323.763 267.925 323.894 267.363L329.212 244.074C329.879 241.242 330.206 239.279 330.206 238.187C330.599 235.465 329.827 234.321 326.811 234.007H335.983L335.989 234Z" fill="white"/>
<path d="M319.635 310.492H330.35C327.269 311.67 326.936 312.102 323.691 319.605L316.338 337.111C316.305 337.196 316.286 337.287 316.286 337.379V348.879C316.286 354.924 316.645 356.121 320.636 356.926H307.592C311.805 356.016 311.942 355.467 311.942 348.879V338.033C311.942 337.935 311.922 337.843 311.883 337.758L303.516 318.441C300.697 312.167 300.402 310.826 297.969 310.492H311.105C308.933 310.996 306.08 311.559 307.108 314.875C307.35 315.66 308.03 317.08 308.952 319.226L314.716 332.689C314.958 333.251 315.756 333.251 315.998 332.689L321.388 319.88C322.291 317.734 322.716 316.138 322.749 315.085C322.86 311.297 320.459 310.499 319.648 310.499L319.635 310.492Z" fill="white"/>
<path d="M631.24 344.04C625.21 291.91 603.61 243.29 568.72 203.66C564.05 198.36 563.92 190.46 568.51 185.1L597.94 150.68L563.53 180.11C558.16 184.7 550.27 184.57 544.97 179.9C505.33 145.01 456.71 123.41 404.58 117.37C389.71 115.65 378.34 103.3 377.75 88.34L374.31 0L370.87 88.34C370.29 103.3 358.92 115.65 344.04 117.37C291.91 123.4 243.28 145 203.65 179.9C198.35 184.57 190.45 184.69 185.09 180.11L150.68 150.68L180.11 185.1C184.7 190.47 184.57 198.36 179.9 203.66C145 243.29 123.4 291.92 117.37 344.05C115.65 358.92 103.3 370.29 88.34 370.87L0 374.31L88.34 377.74C103.3 378.32 115.65 389.69 117.37 404.57C123.4 456.71 145 505.33 179.9 544.96C184.57 550.26 184.7 558.16 180.11 563.52L150.68 597.93L185.09 568.5C190.46 563.91 198.35 564.04 203.65 568.71C243.29 603.61 291.91 625.2 344.05 631.24C358.92 632.96 370.29 645.31 370.87 660.27L374.31 748.61L377.75 660.27C378.33 645.31 389.7 632.96 404.57 631.24C456.7 625.2 505.33 603.61 544.97 568.71C550.27 564.04 558.17 563.91 563.53 568.5L597.94 597.93L568.51 563.52C563.92 558.15 564.05 550.26 568.72 544.96C603.62 505.33 625.21 456.71 631.24 404.57C632.96 389.7 645.31 378.32 660.27 377.74L748.61 374.31L660.26 370.87C645.3 370.29 632.95 358.92 631.23 344.04H631.24ZM621.27 411.33C614.39 457.94 594.52 501.35 563.47 537.29C558.4 543.16 549.53 543.82 543.64 538.78L510.14 510.14L538.78 543.64C543.82 549.53 543.16 558.4 537.3 563.47C501.36 594.53 457.95 614.39 411.34 621.27C393.86 623.85 377.82 611.15 376.45 593.53L374.31 566.05L372.17 593.53C370.8 611.15 354.77 623.85 337.28 621.27C290.67 614.39 247.25 594.52 211.32 563.47C205.45 558.4 204.8 549.53 209.84 543.64L238.48 510.14L204.98 538.78C199.09 543.82 190.22 543.16 185.15 537.29C154.09 501.35 134.23 457.94 127.35 411.33C124.77 393.84 137.47 377.81 155.09 376.44L182.57 374.31L155.08 372.17C137.46 370.8 124.76 354.77 127.34 337.28C134.22 290.67 154.08 247.25 185.15 211.32C190.22 205.46 199.09 204.8 204.98 209.84L238.48 238.48L209.84 204.98C204.8 199.09 205.46 190.22 211.33 185.15C247.26 154.1 290.68 134.24 337.29 127.36C354.78 124.78 370.81 137.48 372.18 155.1L374.31 182.57L376.45 155.1C377.82 137.48 393.85 124.78 411.34 127.36C457.95 134.24 501.37 154.1 537.3 185.15C543.17 190.22 543.83 199.09 538.79 204.98L510.15 238.48L543.65 209.84C549.54 204.8 558.41 205.46 563.48 211.32C594.54 247.25 614.4 290.67 621.28 337.28C623.86 354.76 611.16 370.79 593.54 372.17L566.06 374.31L593.53 376.44C611.15 377.81 623.86 393.84 621.27 411.33Z" fill="white"/>
</svg>
