<svg width="1107" height="136" viewBox="0 0 1107 136" fill="none" xmlns="http://www.w3.org/2000/svg">
<g clip-path="url(#clip0_211_521)">
<path d="M906.283 14.8234V58.6003C906.283 60.5169 907.838 62.087 909.782 62.087H925.003C926.946 62.087 929.647 61.7811 932.327 60.2927C940.817 55.603 940.715 43.94 940.694 43.4507V88.1247C940.817 80.2951 937.482 73.4237 931.795 70.5283C929.463 69.3457 927.069 68.9787 925.003 68.9991H909.782C907.859 68.9991 906.283 70.5487 906.283 72.4858V111.308C906.283 113.143 906.283 118.506 906.242 122.074C906.242 123.95 907.736 125.499 909.618 125.581C911.152 125.642 912.748 125.703 913.301 125.703H927.744C930.465 125.825 932.777 125.479 934.659 124.949C949.184 120.952 954.36 102.887 954.995 100.522L947.65 132.697H882.02C883.411 131.983 884.843 131.066 886.214 129.883C893.783 123.318 894.213 119.831 894.213 110.064V26.6699C894.213 17.4129 895.154 10.0318 886.009 5.46447C884.966 4.93433 883.657 4.50615 882.04 4.34303H947.671L948.612 32.4402C948.366 30.7886 946.136 17.0051 935.498 12.6213C934.004 12.0096 932.061 11.4591 929.647 11.3367H909.782C907.859 11.3367 906.283 12.8864 906.283 14.8234Z" fill="white"/>
<path d="M868.169 1.81469V46.2033C866.165 32.2567 863.628 22.1229 853.48 13.8447C849.859 10.8882 846.156 9.3997 842.31 9.3997C837.953 9.3997 834.352 11.3979 831.508 15.4147C828.664 19.4111 827.232 23.9784 827.232 29.0963C827.232 33.0111 828.133 36.5793 829.933 39.7805C832.531 44.511 838.71 50.8114 848.448 58.7023C856.406 65.1454 861.827 70.0798 864.753 73.5053C867.658 76.9511 869.908 80.9883 871.463 85.6576C873.039 90.3268 873.816 95.2204 873.816 100.318C873.816 110.044 871.32 118.404 866.308 125.438C861.296 132.473 854.872 136 846.995 136C844.52 136 842.208 135.715 840.019 135.144C838.73 134.838 835.825 134.043 831.958 131.698C826.475 128.374 820.461 125.54 818.047 136V91.9988C819.131 101.215 824.757 117.71 833.206 124.072C837.073 126.988 841.144 128.619 845.665 128.619C850.903 128.619 855.035 126.539 858.063 122.38C861.091 118.22 862.625 113.286 862.625 107.617C862.625 104.457 862.052 101.276 860.907 98.0546C859.761 94.833 857.961 91.8357 855.547 89.0627C853.91 87.1664 849.45 83.1496 842.167 76.9919C834.884 70.8342 829.708 65.9406 826.619 62.2705C823.55 58.6207 821.218 54.5835 819.622 50.1589C818.026 45.7343 817.228 40.8816 817.228 35.5802C817.228 26.364 819.581 18.4324 824.266 11.7853C828.951 5.13823 834.925 1.7943 842.167 1.7943C849.409 1.7943 854.79 5.56642 856.549 6.8102C860.845 9.82789 861.766 12.2543 863.648 11.9076C866.185 11.4387 867.474 6.48396 868.169 1.7943V1.81469Z" fill="white"/>
<path d="M1101.33 1.81469V46.2033C1099.33 32.2567 1096.79 22.1229 1086.64 13.8447C1083.02 10.8882 1079.32 9.3997 1075.47 9.3997C1071.12 9.3997 1067.52 11.3979 1064.67 15.4147C1061.83 19.4111 1060.4 23.9784 1060.4 29.0963C1060.4 33.0111 1061.3 36.5793 1063.1 39.7805C1065.69 44.511 1071.87 50.8114 1081.61 58.7023C1089.57 65.1454 1094.99 70.0798 1097.92 73.5053C1100.82 76.9511 1103.07 80.9883 1104.63 85.6576C1106.2 90.3268 1106.98 95.2204 1106.98 100.318C1106.98 110.044 1104.48 118.404 1099.47 125.438C1094.46 132.473 1088.04 136 1080.16 136C1077.68 136 1075.37 135.715 1073.18 135.144C1071.89 134.838 1068.99 134.043 1065.12 131.698C1059.64 128.374 1053.62 125.54 1051.21 136V91.9988C1052.29 101.215 1057.92 117.71 1066.37 124.072C1070.24 126.988 1074.31 128.619 1078.83 128.619C1084.07 128.619 1088.2 126.539 1091.23 122.38C1094.25 118.22 1095.79 113.286 1095.79 107.617C1095.79 104.457 1095.22 101.276 1094.07 98.0546C1092.92 94.833 1091.12 91.8357 1088.71 89.0627C1087.07 87.1664 1082.61 83.1496 1075.33 76.9919C1068.05 70.8342 1062.87 65.9406 1059.78 62.2705C1056.71 58.6207 1054.38 54.5835 1052.79 50.1589C1051.19 45.7343 1050.39 40.8816 1050.39 35.5802C1050.39 26.364 1052.74 18.4324 1057.43 11.7853C1062.11 5.13823 1068.09 1.7943 1075.33 1.7943C1082.57 1.7943 1087.95 5.56642 1089.71 6.8102C1094.01 9.82789 1094.93 12.2543 1096.81 11.9076C1099.35 11.4387 1100.64 6.48396 1101.33 1.7943V1.81469Z" fill="white"/>
<path d="M1036.58 4.34303L1037.52 34.4384C1036.99 24.3454 1035.97 16.006 1028.97 13.3145C1027.52 12.764 1025.94 12.397 1022.98 12.397H1011.71C1009.41 12.397 1007.57 14.2321 1007.57 16.5157V110.431C1007.57 128.578 1007.94 129.455 1019.56 132.676H983.452C991.486 130.107 995.502 122.692 995.502 110.431V16.4954C995.502 14.2117 993.661 12.3766 991.37 12.3766H982.573C979.524 12.3766 979.033 12.397 977.703 12.764C966.308 15.8429 966.185 33.5412 966.042 34.4384L967.045 4.34303H1036.56H1036.58Z" fill="white"/>
<path d="M162.726 3.69056H181.793C184.289 3.69056 186.559 5.05667 187.746 7.23838L235.619 95.7505C236.212 96.8516 237.889 96.4234 237.889 95.1796V25.9358C237.889 8.33943 237.296 7.44228 225.839 3.69056H255.484C244.518 6.89176 243.434 8.52294 243.434 25.9358V134.104L187.276 34.7442C186.662 33.6636 185.025 34.0918 185.025 35.3355V109.779C185.025 128.395 185.639 128.864 197.075 132.024H167.431C178.622 129.434 179.481 128.945 179.481 109.779V20.5529C179.481 12.6417 175.041 6.9937 162.705 3.71095L162.726 3.69056Z" fill="white"/>
<path d="M50.9208 0V44.3886C48.9159 30.442 46.379 20.3082 36.2317 12.03C32.6106 9.07346 28.9076 7.58501 25.0615 7.58501C20.7038 7.58501 17.1032 9.58321 14.2595 13.6C11.4158 17.5964 9.98368 22.1637 9.98368 27.2816C9.98368 31.1964 10.8838 34.7646 12.6842 37.9658C15.2824 42.6963 21.4608 48.9967 31.199 56.8876C39.1572 63.3307 44.5787 68.2651 47.5042 71.6906C50.4093 75.1364 52.6597 79.1736 54.2146 83.8429C55.7899 88.5122 56.5673 93.4057 56.5673 98.5032C56.5673 108.229 54.0714 116.589 49.0591 123.623C44.0468 130.658 37.6229 134.185 29.7464 134.185C27.271 134.185 24.9592 133.9 22.7701 133.329C21.4813 133.023 18.5762 132.228 14.7095 129.883C9.22672 126.56 3.21197 123.725 0.797886 134.185V90.1841C1.88218 99.4003 7.50822 115.896 15.9575 122.257C19.8241 125.173 23.8953 126.804 28.4166 126.804C33.654 126.804 37.7865 124.724 40.8144 120.565C43.8422 116.405 45.3766 111.471 45.3766 105.803C45.3766 102.642 44.8037 99.4615 43.6581 96.2399C42.5124 93.0183 40.7121 90.021 38.298 87.248C36.6613 85.3517 32.2014 81.3349 24.9183 75.1772C17.6351 69.0195 12.4591 64.1259 9.36993 60.4558C6.30118 56.806 3.96893 52.7688 2.37318 48.3442C0.777428 43.9196 -0.0204468 39.0669 -0.0204468 33.7655C-0.0204468 24.5493 2.33226 16.6177 7.01722 9.97062C11.7022 3.32354 17.6965 0 24.9387 0C32.181 0 37.5615 3.77211 39.3209 5.01589C43.6172 8.03358 44.5378 10.46 46.42 10.1133C48.9568 9.64438 50.2457 4.68966 50.9412 0H50.9208Z" fill="white"/>
<path d="M126.698 3.22159H156.834C145.786 6.9937 144.579 8.01319 144.579 26.6903V78.7454C144.579 91.6114 143.74 101.602 142.042 108.698C140.344 115.794 137.009 121.89 132.059 126.967C127.108 132.044 120.356 134.593 111.805 134.593C102.517 134.593 95.4586 132.167 90.6509 127.314C85.8432 122.461 82.4266 115.916 80.4217 107.719C79.0919 102.112 78.4168 91.5706 78.4168 76.1151V25.9358C78.4168 6.89175 77.4348 6.62669 66.0395 3.22159H102.844C89.6893 7.42189 90.3644 7.36072 90.4667 25.9358V81.8651C90.4667 86.8402 90.7736 92.5493 91.3874 98.9925C92.0011 105.436 93.0854 110.452 94.6811 114.04C96.2769 117.629 98.5682 120.606 101.555 122.93C104.542 125.255 108.225 126.437 112.582 126.437C118.147 126.437 123.139 124.602 127.537 120.952C131.936 117.303 134.943 112.613 136.539 106.904C138.155 101.195 138.953 91.5298 138.953 77.8891V25.9358C138.953 7.21799 137.664 6.54513 126.698 3.22159Z" fill="white"/>
<path d="M447.915 11.7853V55.5622C447.915 57.4789 449.469 59.0489 451.413 59.0489H466.634C468.578 59.0489 471.278 58.743 473.958 57.2546C482.448 52.5649 482.346 40.9019 482.325 40.4126V85.0867C482.448 77.257 479.114 70.3856 473.426 67.4903C471.094 66.3076 468.7 65.9406 466.634 65.961H451.413C449.49 65.961 447.915 67.5106 447.915 69.4477V108.27C447.915 110.105 447.915 115.467 447.874 119.036C447.874 120.912 449.367 122.461 451.249 122.543C452.784 122.604 454.379 122.665 454.932 122.665H469.375C472.096 122.787 474.408 122.441 476.29 121.911C490.816 117.914 495.992 99.8489 496.626 97.4837L489.281 129.659H423.651C425.042 128.945 426.474 128.028 427.845 126.845C435.415 120.279 435.844 116.793 435.844 107.026V23.6318C435.844 14.3748 436.785 6.9937 427.64 2.42639C426.597 1.89625 425.288 1.46807 423.671 1.30495H489.302L490.243 29.4021C489.997 27.7505 487.767 13.967 477.129 9.58321C475.636 8.97151 473.692 8.42099 471.278 8.29865H451.413C449.49 8.29865 447.915 9.84828 447.915 11.7853Z" fill="white"/>
<path d="M616.328 11.7853V55.5622C616.328 57.4789 617.882 59.0489 619.826 59.0489H635.047C636.99 59.0489 639.691 58.743 642.371 57.2546C650.861 52.5649 650.759 40.9019 650.738 40.4126V85.0867C650.861 77.257 647.527 70.3856 641.839 67.4903C639.507 66.3076 637.113 65.9406 635.047 65.961H619.826C617.903 65.961 616.328 67.5106 616.328 69.4477V108.27C616.328 110.105 616.328 115.467 616.287 119.036C616.287 120.912 617.78 122.461 619.662 122.543C621.197 122.604 622.792 122.665 623.345 122.665H637.788C640.509 122.787 642.821 122.441 644.703 121.911C659.229 117.914 664.405 99.8489 665.039 97.4837L657.694 129.659H592.064C593.455 128.945 594.887 128.028 596.258 126.845C603.828 120.279 604.257 116.793 604.257 107.026V23.6318C604.257 14.3748 605.198 6.9937 596.053 2.42639C595.01 1.89625 593.701 1.46807 592.084 1.30495H657.715L658.656 29.4021C658.41 27.7505 656.18 13.967 645.542 9.58321C644.049 8.97151 642.105 8.42099 639.691 8.29865H619.826C617.903 8.29865 616.328 9.84828 616.328 11.7853Z" fill="white"/>
<path d="M322.607 2.05937H341.675C344.17 2.05937 346.441 3.42549 347.628 5.6072L395.5 94.1193C396.094 95.2204 397.771 94.7922 397.771 93.5484V24.3046C397.771 6.70825 397.178 5.8111 385.721 2.05937H415.365C404.4 5.26057 403.315 6.89176 403.315 24.3046V132.473L347.157 33.113C346.544 32.0324 344.907 32.4606 344.907 33.7043V108.148C344.907 126.763 345.521 127.232 356.957 130.393H327.313C338.503 127.803 339.363 127.314 339.363 108.148V18.9014C339.363 10.9901 334.923 5.34213 322.587 2.05937H322.607Z" fill="white"/>
<path d="M750.105 129.618H732.306C729.298 129.618 726.557 127.905 725.248 125.193L699.02 70.6099C698.734 70.0186 698.12 69.6312 697.445 69.6312H691.369C690.407 69.6312 689.63 70.406 689.63 71.3643V106.924C689.63 122.298 690.284 126.58 701.884 129.638H665.407C677.212 127.028 677.662 125.499 677.662 106.924V23.9988C677.662 5.44408 677.273 4.9955 665.407 1.28456H696.422C705.465 1.28456 712.134 2.28366 716.43 4.26147C720.726 6.23928 724.368 9.90944 727.355 15.2312C730.342 20.5529 731.835 26.9145 731.835 34.2957C731.835 42.1865 730.137 49.0171 726.721 54.8282C723.713 59.9256 719.274 63.7181 713.382 66.1853C712.032 66.7562 711.438 68.3058 712.052 69.6108L728.439 103.927C732.449 112.389 740.285 129.19 750.105 129.577V129.618ZM689.63 60.1703C689.63 62.1073 691.185 63.7385 693.128 63.7385C701.25 63.7385 709.393 62.821 713.505 57.5196C717.617 52.2183 717.678 43.7361 717.678 35.5394C717.678 27.3427 718.681 18.5751 715.346 13.5592C712.011 8.54333 708.758 7.13643 699.695 6.07616C697.67 5.83148 695.706 5.77031 692.903 5.97421C691.041 6.11694 689.609 7.68696 689.609 9.54243V60.1703H689.63Z" fill="white"/>
<path d="M586.806 1.63118C579.687 3.07886 580.751 3.22159 574.061 23.6726L544.355 132.88L510.128 22.2453C504.216 5.36252 504.073 4.48576 496.626 1.61079H531.405C522.997 3.24198 519.376 4.26147 521.319 13.5184C521.974 16.5973 522.956 21.7967 524.879 28.4846L544.089 95.2C544.785 97.606 548.201 97.5652 548.856 95.1592L566.634 29.4225C568.598 22.1025 569.212 17.0051 569.58 14.1913C570.767 5.28096 568.496 3.07886 560.538 1.61079H586.786L586.806 1.63118Z" fill="white"/>
</g>
<defs>
<clipPath id="clip0_211_521">
<rect width="1107" height="136" fill="white"/>
</clipPath>
</defs>
</svg>
