<svg width="749" height="749" viewBox="0 0 749 749" fill="none" xmlns="http://www.w3.org/2000/svg">
<path d="M631.24 344.04C625.21 291.91 603.61 243.29 568.72 203.66C564.05 198.36 563.92 190.46 568.51 185.1L597.94 150.68L563.53 180.11C558.16 184.7 550.27 184.57 544.97 179.9C505.33 145.01 456.71 123.41 404.58 117.37C389.71 115.65 378.34 103.3 377.75 88.34L374.31 0L370.87 88.34C370.29 103.3 358.92 115.65 344.04 117.37C291.91 123.4 243.28 145 203.65 179.9C198.35 184.57 190.45 184.69 185.09 180.11L150.68 150.68L180.11 185.1C184.7 190.47 184.57 198.36 179.9 203.66C145 243.29 123.4 291.92 117.37 344.05C115.65 358.92 103.3 370.29 88.34 370.87L0 374.31L88.34 377.74C103.3 378.32 115.65 389.69 117.37 404.57C123.4 456.71 145 505.33 179.9 544.96C184.57 550.26 184.7 558.16 180.11 563.52L150.68 597.93L185.09 568.5C190.46 563.91 198.35 564.04 203.65 568.71C243.29 603.61 291.91 625.2 344.05 631.24C358.92 632.96 370.29 645.31 370.87 660.27L374.31 748.61L377.75 660.27C378.33 645.31 389.7 632.96 404.57 631.24C456.7 625.2 505.33 603.61 544.97 568.71C550.27 564.04 558.17 563.91 563.53 568.5L597.94 597.93L568.51 563.52C563.92 558.15 564.05 550.26 568.72 544.96C603.62 505.33 625.21 456.71 631.24 404.57C632.96 389.7 645.31 378.32 660.27 377.74L748.61 374.31L660.26 370.87C645.3 370.29 632.95 358.92 631.23 344.04H631.24ZM621.27 411.33C614.39 457.94 594.52 501.35 563.47 537.29C558.4 543.16 549.53 543.82 543.64 538.78L510.14 510.14L538.78 543.64C543.82 549.53 543.16 558.4 537.3 563.47C501.36 594.53 457.95 614.39 411.34 621.27C393.86 623.85 377.82 611.15 376.45 593.53L374.31 566.05L372.17 593.53C370.8 611.15 354.77 623.85 337.28 621.27C290.67 614.39 247.25 594.52 211.32 563.47C205.45 558.4 204.8 549.53 209.84 543.64L238.48 510.14L204.98 538.78C199.09 543.82 190.22 543.16 185.15 537.29C154.09 501.35 134.23 457.94 127.35 411.33C124.77 393.84 137.47 377.81 155.09 376.44L182.57 374.31L155.08 372.17C137.46 370.8 124.76 354.77 127.34 337.28C134.22 290.67 154.08 247.25 185.15 211.32C190.22 205.46 199.09 204.8 204.98 209.84L238.48 238.48L209.84 204.98C204.8 199.09 205.46 190.22 211.33 185.15C247.26 154.1 290.68 134.24 337.29 127.36C354.78 124.78 370.81 137.48 372.18 155.1L374.31 182.57L376.45 155.1C377.82 137.48 393.85 124.78 411.34 127.36C457.95 134.24 501.37 154.1 537.3 185.15C543.17 190.22 543.83 199.09 538.79 204.98L510.15 238.48L543.65 209.84C549.54 204.8 558.41 205.46 563.48 211.32C594.54 247.25 614.4 290.67 621.28 337.28C623.86 354.76 611.16 370.79 593.54 372.17L566.06 374.31L593.53 376.44C611.15 377.81 623.86 393.84 621.27 411.33Z" fill="white"/>
<g clip-path="url(#clip0_324_5)">
<path d="M448.82 338.664L445.533 353.157C444.714 356.771 446.659 360.436 450.117 361.803L464 367.29L449.431 364.016C445.8 363.201 442.112 365.136 440.741 368.576L435.226 382.388L438.517 367.894C439.336 364.281 437.39 360.613 433.933 359.245L420.05 353.762L434.622 357.032C438.254 357.847 441.941 355.912 443.313 352.472L448.824 338.664H448.82Z" fill="white"/>
<path d="M413.371 411.272L403.71 422.598C401.304 425.419 401.319 429.567 403.747 432.369L413.49 443.625L402.109 434.013C399.274 431.617 395.104 431.632 392.284 434.05L380.969 443.747L390.631 432.421C393.04 429.596 393.025 425.452 390.594 422.646L380.847 411.394L392.232 421.006C395.071 423.402 399.236 423.384 402.057 420.969L413.368 411.276L413.371 411.272Z" fill="white"/>
<path d="M387.985 468L376.952 457.994C374.202 455.501 370.04 455.368 367.135 457.684L355.483 466.971L365.541 455.999C368.046 453.263 368.18 449.119 365.856 446.232L356.52 434.64L367.553 444.65C370.303 447.146 374.469 447.275 377.371 444.964L389.023 435.676L378.964 446.652C376.459 449.388 376.326 453.532 378.653 456.419L387.989 468.007L387.985 468Z" fill="white"/>
<path d="M387.985 335.161L376.952 325.155C374.202 322.662 370.04 322.53 367.135 324.845L355.483 334.133L365.541 323.16C368.046 320.424 368.18 316.28 365.856 313.393L356.52 301.801L367.553 311.811C370.303 314.308 374.469 314.437 377.371 312.125L389.023 302.837L378.964 313.814C376.459 316.549 376.326 320.693 378.653 323.58L387.989 335.169L387.985 335.161Z" fill="white"/>
<path d="M362.576 441.479L351.84 431.159C349.164 428.586 345.006 428.335 342.037 430.562L330.118 439.507L340.495 428.829C343.082 426.167 343.334 422.03 341.096 419.077L332.105 407.22L342.838 417.543C345.513 420.117 349.671 420.368 352.644 418.141L364.562 409.192L354.185 419.874C351.599 422.536 351.347 426.672 353.589 429.626L362.58 441.479H362.576Z" fill="white"/>
<path d="M335.833 411.272L326.334 399.813C323.966 396.959 319.864 396.24 316.662 398.12L303.805 405.671L315.324 396.225C318.196 393.873 318.915 389.788 317.025 386.602L309.435 373.812L318.93 385.275C321.298 388.132 325.4 388.848 328.606 386.967L341.463 379.413L329.944 388.862C327.072 391.218 326.353 395.3 328.247 398.485L335.837 411.272H335.833Z" fill="white"/>
<path d="M411.292 413.761L420.791 402.301C423.159 399.448 427.262 398.729 430.464 400.609L443.32 408.16L431.802 398.714C428.929 396.362 428.21 392.277 430.101 389.091L437.691 376.301L428.196 387.764C425.827 390.621 421.725 391.336 418.519 389.456L405.663 381.901L417.181 391.351C420.053 393.707 420.772 397.789 418.879 400.974L411.289 413.761H411.292Z" fill="white"/>
<path d="M312.804 380.78L307.252 366.991C305.87 363.555 302.178 361.634 298.554 362.456L284 365.771L297.861 360.251C301.315 358.876 303.249 355.204 302.419 351.594L299.091 337.112L304.639 350.901C306.021 354.337 309.713 356.262 313.341 355.436L327.895 352.121L314.034 357.644C310.58 359.02 308.645 362.692 309.476 366.302L312.804 380.78Z" fill="white"/>
<path d="M298.05 337.115L305.736 324.38C307.652 321.206 306.959 317.121 304.109 314.743L292.661 305.208L305.458 312.855C308.649 314.761 312.759 314.075 315.146 311.236L324.73 299.844L317.04 312.578C315.124 315.753 315.813 319.842 318.67 322.216L330.122 331.747L317.318 324.1C314.127 322.194 310.017 322.884 307.63 325.723L298.05 337.115Z" fill="white"/>
<path d="M450.162 340.15L442.475 327.415C440.559 324.24 441.252 320.155 444.102 317.777L455.55 308.243L442.753 315.889C439.562 317.796 435.452 317.11 433.065 314.271L423.482 302.878L431.172 315.613C433.088 318.787 432.398 322.876 429.541 325.251L418.089 334.782L430.894 327.135C434.085 325.229 438.195 325.918 440.581 328.757L450.162 340.15Z" fill="white"/>
<path d="M318.463 302.815L333.354 301.698C337.063 301.421 340.017 298.498 340.321 294.807L341.529 280L342.649 294.814C342.926 298.505 345.865 301.447 349.575 301.746L364.462 302.948L349.571 304.061C345.862 304.338 342.904 307.262 342.604 310.952L341.4 325.763L340.277 310.945C339.999 307.254 337.056 304.312 333.35 304.013L318.466 302.815H318.463Z" fill="white"/>
<path d="M382.663 305.046L397.528 303.556C401.23 303.184 404.114 300.19 404.321 296.492L405.155 281.652L406.649 296.44C407.019 300.127 410.032 302.992 413.749 303.199L428.67 304.028L413.805 305.514C410.099 305.883 407.216 308.884 407.008 312.582L406.178 327.422L404.681 312.63C404.306 308.943 401.293 306.078 397.576 305.872L382.663 305.046Z" fill="white"/>
</g>
<defs>
<clipPath id="clip0_324_5">
<rect width="180" height="188" fill="white" transform="translate(284 280)"/>
</clipPath>
</defs>
</svg>
