<svg width="749" height="749" viewBox="0 0 749 749" fill="none" xmlns="http://www.w3.org/2000/svg">
<g clip-path="url(#clip0_179_745)">
<path d="M631.24 344.04C625.21 291.91 603.61 243.29 568.72 203.66C564.05 198.36 563.92 190.46 568.51 185.1L597.94 150.68L563.53 180.11C558.16 184.7 550.27 184.57 544.97 179.9C505.33 145.01 456.71 123.41 404.58 117.37C389.71 115.65 378.34 103.3 377.75 88.34L374.31 0L370.87 88.34C370.29 103.3 358.92 115.65 344.04 117.37C291.91 123.4 243.28 145 203.65 179.9C198.35 184.57 190.45 184.69 185.09 180.11L150.68 150.68L180.11 185.1C184.7 190.47 184.57 198.36 179.9 203.66C145 243.29 123.4 291.92 117.37 344.05C115.65 358.92 103.3 370.29 88.34 370.87L0 374.31L88.34 377.74C103.3 378.32 115.65 389.69 117.37 404.57C123.4 456.71 145 505.33 179.9 544.96C184.57 550.26 184.7 558.16 180.11 563.52L150.68 597.93L185.09 568.5C190.46 563.91 198.35 564.04 203.65 568.71C243.29 603.61 291.91 625.2 344.05 631.24C358.92 632.96 370.29 645.31 370.87 660.27L374.31 748.61L377.75 660.27C378.33 645.31 389.7 632.96 404.57 631.24C456.7 625.2 505.33 603.61 544.97 568.71C550.27 564.04 558.17 563.91 563.53 568.5L597.94 597.93L568.51 563.52C563.92 558.15 564.05 550.26 568.72 544.96C603.62 505.33 625.21 456.71 631.24 404.57C632.96 389.7 645.31 378.32 660.27 377.74L748.61 374.31L660.26 370.87C645.3 370.29 632.95 358.92 631.23 344.04H631.24ZM621.27 411.33C614.39 457.94 594.52 501.35 563.47 537.29C558.4 543.16 549.53 543.82 543.64 538.78L510.14 510.14L538.78 543.64C543.82 549.53 543.16 558.4 537.3 563.47C501.36 594.53 457.95 614.39 411.34 621.27C393.86 623.85 377.82 611.15 376.45 593.53L374.31 566.05L372.17 593.53C370.8 611.15 354.77 623.85 337.28 621.27C290.67 614.39 247.25 594.52 211.32 563.47C205.45 558.4 204.8 549.53 209.84 543.64L238.48 510.14L204.98 538.78C199.09 543.82 190.22 543.16 185.15 537.29C154.09 501.35 134.23 457.94 127.35 411.33C124.77 393.84 137.47 377.81 155.09 376.44L182.57 374.31L155.08 372.17C137.46 370.8 124.76 354.77 127.34 337.28C134.22 290.67 154.08 247.25 185.15 211.32C190.22 205.46 199.09 204.8 204.98 209.84L238.48 238.48L209.84 204.98C204.8 199.09 205.46 190.22 211.33 185.15C247.26 154.1 290.68 134.24 337.29 127.36C354.78 124.78 370.81 137.48 372.18 155.1L374.31 182.57L376.45 155.1C377.82 137.48 393.85 124.78 411.34 127.36C457.95 134.24 501.37 154.1 537.3 185.15C543.17 190.22 543.83 199.09 538.79 204.98L510.15 238.48L543.65 209.84C549.54 204.8 558.41 205.46 563.48 211.32C594.54 247.25 614.4 290.67 621.28 337.28C623.86 354.76 611.16 370.79 593.54 372.17L566.06 374.31L593.53 376.44C611.15 377.81 623.86 393.84 621.27 411.33Z" fill="white"/>
</g>
<defs>
<clipPath id="clip0_179_745">
<rect width="748.62" height="748.61" fill="white"/>
</clipPath>
</defs>
</svg>
