<svg width="432" height="432" viewBox="0 0 432 432" fill="none" xmlns="http://www.w3.org/2000/svg">
<path d="M364.269 198.535C360.79 168.452 348.325 140.395 328.191 117.526C325.496 114.468 325.421 109.909 328.07 106.816L345.053 86.9528L325.196 103.936C322.097 106.585 317.544 106.51 314.486 103.815C291.611 83.6808 263.553 71.2162 233.471 67.7307C224.89 66.7381 218.328 59.6113 217.988 50.9783L216.003 0L214.018 50.9783C213.683 59.6113 207.122 66.7381 198.535 67.7307C168.452 71.2104 140.389 83.6751 117.52 103.815C114.462 106.51 109.903 106.579 106.81 103.936L86.9528 86.9528L103.936 106.816C106.585 109.914 106.51 114.468 103.815 117.526C83.6751 140.395 71.2104 168.458 67.7307 198.541C66.7381 207.122 59.6113 213.683 50.9783 214.018L0 216.003L50.9783 217.982C59.6113 218.317 66.7381 224.878 67.7307 233.465C71.2104 263.553 83.6751 291.611 103.815 314.48C106.51 317.538 106.585 322.097 103.936 325.19L86.9528 345.047L106.81 328.064C109.909 325.415 114.462 325.49 117.52 328.185C140.395 348.325 168.452 360.784 198.541 364.269C207.122 365.262 213.683 372.389 214.018 381.022L216.003 432L217.988 381.022C218.323 372.389 224.884 365.262 233.465 364.269C263.548 360.784 291.611 348.325 314.486 328.185C317.544 325.49 322.103 325.415 325.196 328.064L345.053 345.047L328.07 325.19C325.421 322.091 325.496 317.538 328.191 314.48C348.331 291.611 360.79 263.553 364.269 233.465C365.262 224.884 372.389 218.317 381.022 217.982L432 216.003L381.016 214.018C372.383 213.683 365.256 207.122 364.264 198.535H364.269ZM358.516 237.366C354.546 264.263 343.079 289.314 325.161 310.054C322.236 313.441 317.117 313.822 313.718 310.914L294.386 294.386L310.914 313.718C313.822 317.117 313.441 322.236 310.059 325.161C289.32 343.085 264.269 354.546 237.372 358.516C227.285 360.005 218.028 352.676 217.238 342.508L216.003 326.65L214.768 342.508C213.977 352.676 204.727 360.005 194.634 358.516C167.737 354.546 142.68 343.079 121.946 325.161C118.559 322.236 118.184 317.117 121.092 313.718L137.62 294.386L118.288 310.914C114.889 313.822 109.77 313.441 106.844 310.054C88.9206 289.314 77.46 264.263 73.4898 237.366C72.001 227.273 79.3297 218.023 89.4977 217.232L105.356 216.003L89.4919 214.768C79.324 213.977 71.9952 204.727 73.484 194.634C77.4543 167.737 88.9149 142.68 106.844 121.946C109.77 118.565 114.889 118.184 118.288 121.092L137.62 137.62L121.092 118.288C118.184 114.889 118.565 109.77 121.952 106.844C142.686 88.9264 167.743 77.4658 194.64 73.4956C204.733 72.0067 213.983 79.3355 214.774 89.5035L216.003 105.356L217.238 89.5035C218.028 79.3355 227.279 72.0067 237.372 73.4956C264.269 77.4658 289.325 88.9264 310.059 106.844C313.447 109.77 313.828 114.889 310.919 118.288L294.392 137.62L313.724 121.092C317.123 118.184 322.241 118.565 325.167 121.946C343.091 142.68 354.552 167.737 358.522 194.634C360.011 204.721 352.682 213.972 342.514 214.768L326.656 216.003L342.508 217.232C352.676 218.023 360.011 227.273 358.516 237.366Z" fill="white"/>
<path d="M215.997 155L219.086 194.485C219.857 204.322 227.67 212.14 237.513 212.911L277 216L237.518 219.083C227.675 219.854 219.857 227.666 219.092 237.509L216.003 277L212.919 237.509C212.148 227.666 204.33 219.848 194.493 219.083L155 216L194.493 212.911C204.336 212.14 212.148 204.322 212.919 194.485L216.003 155H215.997Z" fill="white"/>
<path d="M173 173L203.011 198.656C210.489 205.05 221.505 205.05 228.983 198.656L258.994 173L233.34 203.002C226.946 210.48 226.946 221.502 233.34 228.981L259 259L228.995 233.338C221.516 226.944 210.495 226.944 203.017 233.338L173.012 259L198.672 228.981C205.065 221.502 205.065 210.48 198.672 203.002L173.017 173H173Z" fill="white"/>
</svg>
