<svg width="749" height="749" viewBox="0 0 749 749" fill="none" xmlns="http://www.w3.org/2000/svg">
<path d="M631.24 344.04C625.21 291.91 603.61 243.29 568.72 203.66C564.05 198.36 563.92 190.46 568.51 185.1L597.94 150.68L563.53 180.11C558.16 184.7 550.27 184.57 544.97 179.9C505.33 145.01 456.71 123.41 404.58 117.37C389.71 115.65 378.34 103.3 377.75 88.34L374.31 0L370.87 88.34C370.29 103.3 358.92 115.65 344.04 117.37C291.91 123.4 243.28 145 203.65 179.9C198.35 184.57 190.45 184.69 185.09 180.11L150.68 150.68L180.11 185.1C184.7 190.47 184.57 198.36 179.9 203.66C145 243.29 123.4 291.92 117.37 344.05C115.65 358.92 103.3 370.29 88.34 370.87L0 374.31L88.34 377.74C103.3 378.32 115.65 389.69 117.37 404.57C123.4 456.71 145 505.33 179.9 544.96C184.57 550.26 184.7 558.16 180.11 563.52L150.68 597.93L185.09 568.5C190.46 563.91 198.35 564.04 203.65 568.71C243.29 603.61 291.91 625.2 344.05 631.24C358.92 632.96 370.29 645.31 370.87 660.27L374.31 748.61L377.75 660.27C378.33 645.31 389.7 632.96 404.57 631.24C456.7 625.2 505.33 603.61 544.97 568.71C550.27 564.04 558.17 563.91 563.53 568.5L597.94 597.93L568.51 563.52C563.92 558.15 564.05 550.26 568.72 544.96C603.62 505.33 625.21 456.71 631.24 404.57C632.96 389.7 645.31 378.32 660.27 377.74L748.61 374.31L660.26 370.87C645.3 370.29 632.95 358.92 631.23 344.04H631.24ZM621.27 411.33C614.39 457.94 594.52 501.35 563.47 537.29C558.4 543.16 549.53 543.82 543.64 538.78L510.14 510.14L538.78 543.64C543.82 549.53 543.16 558.4 537.3 563.47C501.36 594.53 457.95 614.39 411.34 621.27C393.86 623.85 377.82 611.15 376.45 593.53L374.31 566.05L372.17 593.53C370.8 611.15 354.77 623.85 337.28 621.27C290.67 614.39 247.25 594.52 211.32 563.47C205.45 558.4 204.8 549.53 209.84 543.64L238.48 510.14L204.98 538.78C199.09 543.82 190.22 543.16 185.15 537.29C154.09 501.35 134.23 457.94 127.35 411.33C124.77 393.84 137.47 377.81 155.09 376.44L182.57 374.31L155.08 372.17C137.46 370.8 124.76 354.77 127.34 337.28C134.22 290.67 154.08 247.25 185.15 211.32C190.22 205.46 199.09 204.8 204.98 209.84L238.48 238.48L209.84 204.98C204.8 199.09 205.46 190.22 211.33 185.15C247.26 154.1 290.68 134.24 337.29 127.36C354.78 124.78 370.81 137.48 372.18 155.1L374.31 182.57L376.45 155.1C377.82 137.48 393.85 124.78 411.34 127.36C457.95 134.24 501.37 154.1 537.3 185.15C543.17 190.22 543.83 199.09 538.79 204.98L510.15 238.48L543.65 209.84C549.54 204.8 558.41 205.46 563.48 211.32C594.54 247.25 614.4 290.67 621.28 337.28C623.86 354.76 611.16 370.79 593.54 372.17L566.06 374.31L593.53 376.44C611.15 377.81 623.86 393.84 621.27 411.33Z" fill="white"/>
<path d="M331.11 345.23L290.92 348.37C280.91 349.15 272.95 357.11 272.17 367.12L269.03 407.31L265.89 367.12C265.11 357.1 257.15 349.15 247.14 348.36L206.94 345.22L247.13 342.08C257.15 341.3 265.1 333.34 265.89 323.32L269.03 283.13L272.17 323.33C272.95 333.35 280.91 341.3 290.93 342.08L331.12 345.22L331.11 345.23Z" fill="white"/>
<path d="M541.68 345.23L501.49 348.37C491.48 349.15 483.52 357.11 482.74 367.12L479.6 407.31L476.46 367.12C475.68 357.1 467.72 349.15 457.71 348.36L417.51 345.22L457.7 342.08C467.72 341.3 475.67 333.34 476.46 323.32L479.6 283.13L482.74 323.33C483.52 333.35 491.48 341.3 501.5 342.08L541.69 345.22L541.68 345.23Z" fill="white"/>
<path d="M341.74 490.62C332.74 490 328.22 489.48 319.23 488.02C313.63 487.11 308.31 489.44 306.63 493.78C303.94 500.75 302.57 504.22 299.78 511.15C301.05 503.79 301.71 500.11 303.08 492.77C303.93 488.2 300.63 483.42 295.35 481.25C286.87 477.76 282.71 475.82 274.58 471.55C283.18 474.76 287.54 476.15 296.28 478.5C301.73 479.97 307.05 477.67 308.75 473.34C311.48 466.4 312.82 462.92 315.45 455.94C314.02 463.26 313.34 466.93 312.02 474.27C311.2 478.84 314.51 483.59 319.89 485.19C328.52 487.76 332.9 488.85 341.74 490.62Z" fill="white"/>
<path d="M276.52 472.41C267.9 469.28 263.62 467.49 255.2 463.49C249.95 460.99 244.09 461.69 241.27 465.38C236.74 471.32 234.45 474.27 229.83 480.14C233.07 473.41 234.72 470.05 238.06 463.37C240.14 459.21 238.18 453.63 233.56 449.95C226.15 444.05 222.56 440.91 215.66 434.26C223.31 440.03 227.23 442.69 235.22 447.57C240.19 450.61 246.05 449.95 248.89 446.27C253.46 440.37 255.72 437.4 260.2 431.44C256.81 438.09 255.14 441.42 251.85 448.12C249.8 452.29 251.78 457.84 256.61 460.94C264.37 465.91 268.36 468.2 276.52 472.4V472.41Z" fill="white"/>
<path d="M408.93 490.34C400.09 492.19 395.62 492.91 386.62 493.94C381.01 494.58 376.56 498.28 376.14 502.91C375.46 510.34 375.09 514.06 374.31 521.49C373.53 514.06 373.16 510.35 372.48 502.91C372.06 498.28 367.61 494.58 362 493.94C352.99 492.91 348.52 492.19 339.68 490.34C348.68 491.04 353.18 491.18 362.14 491.04C367.72 490.96 372.17 487.3 372.63 482.67C373.36 475.25 373.69 471.53 374.31 464.1C374.93 471.53 375.27 475.24 376 482.67C376.45 487.3 380.9 490.96 386.49 491.04C395.45 491.17 399.95 491.04 408.95 490.34H408.93Z" fill="white"/>
<path d="M474.03 471.55C465.9 475.82 461.74 477.76 453.26 481.25C447.98 483.42 444.67 488.2 445.53 492.77C446.9 500.11 447.56 503.78 448.83 511.15C446.04 504.22 444.67 500.74 441.99 493.78C440.32 489.44 434.99 487.11 429.39 488.02C420.4 489.49 415.88 490 406.88 490.63C415.73 488.86 420.11 487.77 428.74 485.2C434.12 483.6 437.43 478.85 436.61 474.28C435.29 466.94 434.6 463.27 433.17 455.95C435.8 462.93 437.14 466.41 439.87 473.35C441.57 477.68 446.89 479.97 452.34 478.51C461.09 476.16 465.44 474.77 474.04 471.56L474.03 471.55Z" fill="white"/>
<path d="M532.96 434.27C526.07 440.92 522.48 444.06 515.07 449.96C510.45 453.63 508.49 459.21 510.57 463.37C513.91 470.05 515.55 473.41 518.79 480.14C514.17 474.27 511.88 471.32 507.35 465.38C504.53 461.68 498.66 460.99 493.41 463.48C484.99 467.49 480.71 469.27 472.08 472.4C480.24 468.2 484.23 465.91 492 460.94C496.84 457.84 498.81 452.29 496.76 448.12C493.47 441.42 491.8 438.09 488.41 431.44C492.89 437.4 495.15 440.37 499.72 446.27C502.57 449.95 508.42 450.6 513.39 447.56C521.37 442.68 525.3 440.02 532.94 434.25L532.96 434.27Z" fill="white"/>
</svg>
