<svg width="749" height="749" viewBox="0 0 749 749" fill="none" xmlns="http://www.w3.org/2000/svg">
<path d="M239.719 428.805H230.08C231.358 428.465 232.297 427.328 232.676 426.779C233.445 425.681 234.182 422.884 235.115 419.532L245.881 381.354C249.696 394.215 253.511 407.082 257.326 419.943C257.913 421.943 258.976 424.524 260.978 427.027C261.507 427.694 262.054 428.282 262.583 428.805H250.505C251.607 428.099 253.544 426.622 253.622 424.701C253.642 424.191 253.537 423.577 253.394 422.76C253.192 421.571 252.924 420.603 252.716 419.943L251.079 414.055C250.948 413.591 250.531 413.271 250.049 413.271H239.817C239.34 413.271 238.923 413.591 238.786 414.049L236.928 420.59C236.419 422.394 236.158 424.629 236.158 424.629C236.119 424.982 236.06 426.034 236.719 427.06C237.71 428.615 239.484 428.785 239.706 428.805H239.719ZM250.055 410.069L245.555 393.81C245.412 393.293 244.681 393.293 244.538 393.81L239.921 410.069C239.823 410.409 240.077 410.742 240.43 410.742H249.553C249.905 410.742 250.159 410.409 250.062 410.069H250.055Z" fill="white"/>
<path d="M402.695 433.974C403.986 433.974 406.06 432.079 406.601 430.824C406.933 430.073 407.097 428.387 407.097 425.76V395.79C407.097 392.895 406.888 391.078 406.464 390.353C405.877 389.346 403.855 387.582 402.695 387.582H415.157C419.735 387.582 423.211 388.366 425.598 389.941C427.984 391.516 429.902 394.137 431.356 397.809C432.81 401.482 433.534 405.723 433.534 410.533C433.534 416.99 432.243 422.381 429.654 426.714C426.752 431.55 422.324 433.968 416.376 433.968H402.695V433.974ZM411.433 426.655C411.433 429.321 413.546 431.569 416.2 431.582C416.213 431.582 416.226 431.582 416.239 431.582C419.728 431.582 422.63 429.726 424.932 426.008C427.235 422.289 428.389 417.251 428.389 410.886C428.389 404.521 427.235 399.423 424.932 395.731C422.63 392.039 419.67 390.189 416.057 390.189H416.018C413.481 390.189 411.433 392.254 411.433 394.797V426.655Z" fill="white"/>
<path d="M245.73 310.849V326.67C245.73 327.363 246.291 327.925 246.982 327.925H252.453C253.151 327.925 254.123 327.814 255.088 327.278C258.147 325.579 258.101 321.364 258.094 321.187V337.335C258.14 334.506 256.94 332.022 254.892 330.977C254.051 330.546 253.19 330.421 252.453 330.428H246.982C246.291 330.428 245.73 330.99 245.73 331.683V345.72C245.73 346.38 245.723 348.321 245.717 349.608C245.717 350.288 246.252 350.85 246.93 350.876C247.484 350.896 248.058 350.915 248.26 350.915H253.451C254.429 350.961 255.258 350.83 255.936 350.641C261.159 349.197 263.018 342.661 263.246 341.812L260.605 353.444H237.011C237.513 353.189 238.028 352.856 238.517 352.431C241.237 350.059 241.393 348.798 241.393 345.269V315.136C241.393 311.79 241.732 309.117 238.445 307.47C238.067 307.281 237.598 307.124 237.017 307.065H260.612L260.951 317.227C260.866 316.626 260.057 311.646 256.236 310.058C255.701 309.836 254.997 309.64 254.129 309.594H246.982C246.291 309.594 245.73 310.156 245.73 310.849Z" fill="white"/>
<path d="M472.832 434.072H459.718C464.015 432.621 464.1 432.092 464.1 425.864V395.894C464.1 391.52 462.639 388.784 459.718 387.686H472.832C469.897 388.784 468.43 391.52 468.43 395.894V425.864C468.43 431.223 468.639 432.798 472.832 434.072Z" fill="white"/>
<path d="M511.711 354.392H498.596C502.894 352.941 502.979 352.412 502.979 346.184V316.214C502.979 311.84 501.518 309.104 498.596 308.006H511.711C508.776 309.104 507.309 311.84 507.309 316.214V346.184C507.309 351.543 507.518 353.118 511.711 354.392Z" fill="white"/>
<path d="M318.691 307.059C314.478 308.34 314.309 308.398 314.309 315.267V337.95C314.309 340.864 314.289 343.197 314.276 345.066C314.276 351.686 314.126 351.915 313.63 352.569C312.972 353.444 312.483 353.457 308.479 353.444C307.755 353.444 307.116 353.425 306.548 353.425C304.892 353.425 303.77 353.359 303.222 352.575C302.029 350.863 303.235 343.38 302.231 342.446C301.677 341.93 300.848 341.57 300.203 341.518H304.82C306.007 341.518 306.972 342.485 306.972 343.674C306.972 345.374 306.972 347.131 306.972 348.51C306.972 349.033 306.835 352.268 308.505 352.268C310.018 352.268 309.972 349.301 309.972 347.138V315.267C309.972 308.372 309.939 308.17 305.57 307.059H318.691Z" fill="white"/>
<path d="M367.179 387.203H374.033C374.927 387.203 375.748 387.693 376.172 388.484L393.389 420.486C393.604 420.884 394.204 420.728 394.204 420.283V395.247C394.204 388.889 393.989 388.562 389.867 387.209H400.523C396.578 388.366 396.186 388.954 396.186 395.247V434.353L375.996 398.437C375.781 398.051 375.187 398.201 375.187 398.652V425.563C375.187 432.288 375.409 432.464 379.524 433.602H368.868C372.892 432.667 373.205 432.491 373.205 425.563V393.3C373.205 390.438 371.607 388.399 367.179 387.209V387.203Z" fill="white"/>
<path d="M518.65 306.686H525.504C526.397 306.686 527.219 307.176 527.643 307.967L544.859 339.969C545.074 340.368 545.674 340.211 545.674 339.766V314.724C545.674 308.366 545.459 308.039 541.338 306.686H551.993C548.048 307.843 547.657 308.431 547.657 314.724V353.83L527.467 317.913C527.251 317.528 526.658 317.678 526.658 318.129V345.04C526.658 351.765 526.88 351.941 530.995 353.078H520.339C524.362 352.144 524.675 351.967 524.675 345.04V312.777C524.675 309.914 523.078 307.876 518.65 306.686Z" fill="white"/>
<path d="M307.972 386.484C311.943 386.484 315.386 388.771 318.302 393.346C321.217 397.92 322.671 403.625 322.671 410.468C322.671 417.31 321.204 423.368 318.269 428.021C315.334 432.674 311.78 435 307.613 435C303.446 435 299.859 432.732 296.99 428.191C294.12 423.649 292.686 417.78 292.686 410.572C292.686 403.364 294.342 397.195 297.655 392.542C300.531 388.503 303.968 386.484 307.972 386.484ZM307.541 387.673C304.802 387.673 302.605 390.523 300.948 393.601C298.887 397.43 297.857 403.044 297.857 410.435C297.857 417.826 298.927 423.832 301.066 427.916C302.709 431.02 304.874 433.876 307.567 433.876C310.443 433.876 312.817 430.87 314.689 427.472C316.56 424.073 317.499 418.715 317.499 411.396C317.499 403.455 316.469 397.541 314.408 393.64C312.752 390.536 310.463 387.68 307.548 387.68L307.541 387.673Z" fill="white"/>
<path d="M478.726 332.741C478.243 332.748 477.858 333.14 477.858 333.624V345.243C477.858 351.895 478.021 352.131 482.26 353.451H469.146C473.274 352.405 473.528 352.17 473.528 345.243V315.273C473.528 308.588 473.098 308.209 469.146 307.065H480.369C486.258 307.065 488.534 307.679 490.262 309.411C491.508 310.659 492.649 312.274 492.649 319.867C492.408 325.402 491.462 327.755 490.549 329.069C488.899 331.441 486.023 332.689 483.017 332.689C482.489 332.689 480.056 332.722 478.732 332.741H478.726ZM477.858 329.5V330.284C477.858 330.755 478.23 331.147 478.706 331.166C479.906 331.212 482.091 331.245 483.356 330.918C484.771 330.552 485.593 329.944 486.401 328.121C487.08 326.598 487.321 323.488 487.321 320.573C487.321 315.907 487.686 311.914 486.649 309.993C485.612 308.072 483.167 308.215 481.191 308.215C478.791 308.215 477.858 309.548 477.858 312.47V329.5Z" fill="white"/>
<path d="M294.074 433.935H287.67C286.588 433.935 285.603 433.314 285.134 432.334L275.704 412.598C275.599 412.382 275.378 412.245 275.143 412.245H272.958C272.613 412.245 272.332 412.526 272.332 412.872V425.727C272.332 431.288 272.567 432.837 276.734 433.935H263.62C267.865 432.987 268.022 432.438 268.022 425.727V395.757C268.022 389.046 267.878 388.889 263.62 387.549H274.771C278.025 387.549 280.419 387.909 281.964 388.627C283.51 389.346 284.814 390.666 285.89 392.594C286.966 394.522 287.507 396.822 287.507 399.489C287.507 402.338 286.894 404.815 285.668 406.912C284.592 408.755 282.988 410.128 280.869 411.016C280.386 411.219 280.171 411.781 280.393 412.258L286.288 424.668C287.736 427.727 290.546 433.798 294.074 433.941V433.935ZM272.332 408.834C272.332 409.533 272.893 410.121 273.591 410.128C276.512 410.128 279.441 409.794 280.921 407.88C282.401 405.965 282.421 402.893 282.421 399.933C282.421 396.973 282.779 393.797 281.586 391.986C280.393 390.176 279.219 389.667 275.958 389.281C275.234 389.196 274.523 389.17 273.519 389.248C272.847 389.301 272.332 389.863 272.332 390.536V408.84V408.834Z" fill="white"/>
<path d="M379.764 306V322.043C379.04 317.005 378.127 313.339 374.481 310.346C373.184 309.281 371.847 308.738 370.464 308.738C368.899 308.738 367.601 309.464 366.584 310.908C365.56 312.359 365.051 314.005 365.051 315.848C365.051 317.26 365.378 318.554 366.023 319.717C366.956 321.429 369.179 323.71 372.681 326.559C375.544 328.886 377.494 330.67 378.538 331.911C379.581 333.153 380.39 334.617 380.951 336.309C381.518 337.995 381.798 339.766 381.798 341.609C381.798 345.119 380.898 348.151 379.099 350.693C377.299 353.235 374.984 354.509 372.153 354.509C371.266 354.509 370.432 354.405 369.649 354.202C369.179 354.091 368.143 353.804 366.747 352.954C364.778 351.758 362.612 350.726 361.745 354.509V338.603C362.136 341.936 364.158 347.896 367.197 350.203C368.593 351.262 370.053 351.843 371.677 351.843C373.562 351.843 375.042 351.092 376.138 349.582C377.227 348.079 377.775 346.295 377.775 344.243C377.775 343.106 377.566 341.949 377.155 340.786C376.744 339.623 376.099 338.538 375.225 337.538C374.638 336.852 373.034 335.401 370.419 333.179C367.797 330.957 365.938 329.18 364.83 327.86C363.721 326.54 362.886 325.076 362.312 323.481C361.739 321.887 361.452 320.129 361.452 318.214C361.452 314.881 362.293 312.019 363.982 309.607C365.671 307.196 367.81 306 370.419 306C373.027 306 374.957 307.366 375.59 307.81C377.129 308.902 377.468 309.777 378.146 309.66C379.059 309.49 379.516 307.699 379.77 306H379.764Z" fill="white"/>
<path d="M463.74 306V322.043C463.016 317.005 462.103 313.339 458.457 310.346C457.16 309.281 455.823 308.738 454.44 308.738C452.875 308.738 451.577 309.464 450.56 310.908C449.536 312.359 449.027 314.005 449.027 315.848C449.027 317.26 449.353 318.554 449.999 319.717C450.932 321.429 453.155 323.71 456.657 326.559C459.52 328.886 461.47 330.67 462.514 331.911C463.557 333.153 464.366 334.617 464.927 336.309C465.494 337.995 465.774 339.766 465.774 341.609C465.774 345.119 464.874 348.151 463.074 350.693C461.275 353.235 458.959 354.509 456.129 354.509C455.242 354.509 454.408 354.405 453.625 354.202C453.155 354.091 452.119 353.804 450.723 352.954C448.754 351.758 446.588 350.726 445.721 354.509V338.603C446.112 341.936 448.134 347.896 451.173 350.203C452.569 351.262 454.029 351.843 455.653 351.843C457.538 351.843 459.018 351.092 460.114 349.582C461.203 348.079 461.751 346.295 461.751 344.243C461.751 343.106 461.542 341.949 461.131 340.786C460.72 339.623 460.075 338.538 459.201 337.538C458.614 336.852 457.01 335.401 454.395 333.179C451.773 330.957 449.914 329.18 448.806 327.86C447.697 326.54 446.862 325.076 446.288 323.481C445.715 321.887 445.428 320.129 445.428 318.214C445.428 314.881 446.269 312.019 447.958 309.607C449.647 307.196 451.786 306 454.395 306C457.003 306 458.933 307.366 459.566 307.81C461.105 308.902 461.444 309.777 462.122 309.66C463.035 309.49 463.492 307.699 463.746 306H463.74Z" fill="white"/>
<path d="M506.88 387.686L507.219 398.567C507.03 394.921 506.659 391.908 504.141 390.928C503.62 390.725 503.059 390.595 501.989 390.595H497.933C497.111 390.595 496.446 391.261 496.446 392.085V426.034C496.446 432.595 496.583 432.909 500.757 434.072H487.773C490.664 433.144 492.109 430.465 492.109 426.034V392.078C492.109 391.255 491.444 390.588 490.622 390.588H487.46C486.364 390.588 486.188 390.595 485.712 390.725C481.616 391.836 481.571 398.234 481.525 398.561L481.884 387.68H506.88V387.686Z" fill="white"/>
<path d="M414.745 307.059L415.084 317.939C414.895 314.293 414.523 311.28 412.006 310.3C411.484 310.097 410.923 309.967 409.854 309.967H405.797C404.976 309.967 404.31 310.633 404.31 311.457V345.406C404.31 351.967 404.447 352.281 408.621 353.444H395.637C398.528 352.516 399.974 349.837 399.974 345.406V311.457C399.974 310.633 399.308 309.967 398.487 309.967H395.324C394.228 309.967 394.052 309.973 393.576 310.104C389.481 311.215 389.435 317.613 389.389 317.939L389.748 307.059H414.745Z" fill="white"/>
<path d="M354.175 387.033H365.014C361.042 388.399 360.612 388.765 360.612 395.515V414.33C360.612 418.983 360.306 422.59 359.699 425.158C359.093 427.727 357.893 429.922 356.112 431.759C354.325 433.595 351.899 434.51 348.828 434.51C345.489 434.51 342.952 433.634 341.217 431.876C339.489 430.118 338.257 427.759 337.539 424.792C337.057 422.76 336.816 418.957 336.816 413.369V395.234C336.816 388.353 336.463 388.255 332.368 387.026H345.6C340.865 388.549 341.113 388.523 341.152 395.234V415.454C341.152 417.257 341.263 419.322 341.478 421.649C341.693 423.975 342.091 425.786 342.665 427.086C343.239 428.387 344.061 429.458 345.137 430.301C346.213 431.144 347.537 431.569 349.102 431.569C351.104 431.569 352.897 430.909 354.475 429.582C356.054 428.262 357.136 426.563 357.717 424.505C358.297 422.44 358.584 418.943 358.584 414.016V395.234C358.584 388.471 358.121 388.229 354.182 387.026L354.175 387.033Z" fill="white"/>
<path d="M343.016 306.516H353.854C349.883 307.882 349.452 308.248 349.452 314.999V333.813C349.452 338.466 349.146 342.073 348.539 344.642C347.933 347.21 346.733 349.406 344.953 351.242C343.166 353.078 340.74 353.993 337.668 353.993C334.329 353.993 331.792 353.118 330.058 351.36C328.33 349.602 327.097 347.243 326.38 344.276C325.897 342.243 325.656 338.44 325.656 332.852V314.724C325.656 307.843 325.304 307.745 321.208 306.516H334.44C329.706 308.039 329.953 308.013 329.993 314.724V334.944C329.993 336.747 330.103 338.812 330.319 341.139C330.534 343.465 330.932 345.276 331.506 346.576C332.079 347.876 332.901 348.948 333.977 349.791C335.053 350.634 336.377 351.059 337.942 351.059C339.944 351.059 341.738 350.399 343.316 349.072C344.894 347.752 345.976 346.053 346.557 343.995C347.137 341.93 347.424 338.433 347.424 333.506V314.724C347.424 307.961 346.961 307.719 343.022 306.516H343.016Z" fill="white"/>
<path d="M237.669 306.529C236.013 307.083 234.891 308.531 234.304 310.875C234.096 311.705 233.528 313.581 232.883 316.587L224.346 353.98L217.023 326.415C216.879 325.866 216.097 325.88 215.973 326.429L209.536 353.974L199.63 315.456C198.322 310.132 196.778 307.157 195 306.529H206.334C204.756 306.974 202.976 307.281 203.334 310.601C203.452 311.692 203.315 310.927 204.326 316.11L209.823 339.851C209.954 340.413 210.749 340.413 210.88 339.851L215.177 321.116C215.347 320.39 215.347 319.632 215.177 318.9L214.532 316.11L213.808 312.999C212.477 307.268 212.164 307.157 209.543 306.529H221.464C220.342 306.693 218.079 307.882 218.21 310.842C218.275 312.221 218.223 312.084 219.227 316.933L224.561 339.858C224.692 340.42 225.487 340.42 225.618 339.858L230.92 316.593C231.585 313.764 231.911 311.803 231.911 310.712C232.302 307.993 231.533 306.85 228.526 306.536H237.669V306.529Z" fill="white"/>
<path d="M631.24 344.04C625.21 291.91 603.61 243.29 568.72 203.66C564.05 198.36 563.92 190.46 568.51 185.1L597.94 150.68L563.53 180.11C558.16 184.7 550.27 184.57 544.97 179.9C505.33 145.01 456.71 123.41 404.58 117.37C389.71 115.65 378.34 103.3 377.75 88.34L374.31 0L370.87 88.34C370.29 103.3 358.92 115.65 344.04 117.37C291.91 123.4 243.28 145 203.65 179.9C198.35 184.57 190.45 184.69 185.09 180.11L150.68 150.68L180.11 185.1C184.7 190.47 184.57 198.36 179.9 203.66C145 243.29 123.4 291.92 117.37 344.05C115.65 358.92 103.3 370.29 88.34 370.87L0 374.31L88.34 377.74C103.3 378.32 115.65 389.69 117.37 404.57C123.4 456.71 145 505.33 179.9 544.96C184.57 550.26 184.7 558.16 180.11 563.52L150.68 597.93L185.09 568.5C190.46 563.91 198.35 564.04 203.65 568.71C243.29 603.61 291.91 625.2 344.05 631.24C358.92 632.96 370.29 645.31 370.87 660.27L374.31 748.61L377.75 660.27C378.33 645.31 389.7 632.96 404.57 631.24C456.7 625.2 505.33 603.61 544.97 568.71C550.27 564.04 558.17 563.91 563.53 568.5L597.94 597.93L568.51 563.52C563.92 558.15 564.05 550.26 568.72 544.96C603.62 505.33 625.21 456.71 631.24 404.57C632.96 389.7 645.31 378.32 660.27 377.74L748.61 374.31L660.26 370.87C645.3 370.29 632.95 358.92 631.23 344.04H631.24ZM621.27 411.33C614.39 457.94 594.52 501.35 563.47 537.29C558.4 543.16 549.53 543.82 543.64 538.78L510.14 510.14L538.78 543.64C543.82 549.53 543.16 558.4 537.3 563.47C501.36 594.53 457.95 614.39 411.34 621.27C393.86 623.85 377.82 611.15 376.45 593.53L374.31 566.05L372.17 593.53C370.8 611.15 354.77 623.85 337.28 621.27C290.67 614.39 247.25 594.52 211.32 563.47C205.45 558.4 204.8 549.53 209.84 543.64L238.48 510.14L204.98 538.78C199.09 543.82 190.22 543.16 185.15 537.29C154.09 501.35 134.23 457.94 127.35 411.33C124.77 393.84 137.47 377.81 155.09 376.44L182.57 374.31L155.08 372.17C137.46 370.8 124.76 354.77 127.34 337.28C134.22 290.67 154.08 247.25 185.15 211.32C190.22 205.46 199.09 204.8 204.98 209.84L238.48 238.48L209.84 204.98C204.8 199.09 205.46 190.22 211.33 185.15C247.26 154.1 290.68 134.24 337.29 127.36C354.78 124.78 370.81 137.48 372.18 155.1L374.31 182.57L376.45 155.1C377.82 137.48 393.85 124.78 411.34 127.36C457.95 134.24 501.37 154.1 537.3 185.15C543.17 190.22 543.83 199.09 538.79 204.98L510.15 238.48L543.65 209.84C549.54 204.8 558.41 205.46 563.48 211.32C594.54 247.25 614.4 290.67 621.28 337.28C623.86 354.76 611.16 370.79 593.54 372.17L566.06 374.31L593.53 376.44C611.15 377.81 623.86 393.84 621.27 411.33Z" fill="white"/>
</svg>
