<svg width="749" height="749" viewBox="0 0 749 749" fill="none" xmlns="http://www.w3.org/2000/svg">
<g clip-path="url(#clip0_178_537)">
<path d="M345.13 461.06V482.53C345.13 483.47 345.89 484.24 346.84 484.24H354.28C355.23 484.24 356.55 484.09 357.86 483.36C362.01 481.06 361.96 475.34 361.95 475.1V497.01C362.01 493.17 360.38 489.8 357.6 488.38C356.46 487.8 355.29 487.62 354.28 487.63H346.84C345.9 487.63 345.13 488.39 345.13 489.34V508.38C345.13 509.28 345.13 511.91 345.11 513.66C345.11 514.58 345.84 515.34 346.76 515.38C347.51 515.41 348.29 515.44 348.56 515.44H355.62C356.95 515.5 358.08 515.33 359 515.07C366.1 513.11 368.63 504.25 368.94 503.09L365.35 518.87H333.27C333.95 518.52 334.65 518.07 335.32 517.49C339.02 514.27 339.23 512.56 339.23 507.77V466.88C339.23 462.34 339.69 458.72 335.22 456.48C334.71 456.22 334.07 456.01 333.28 455.93H365.36L365.82 469.71C365.7 468.9 364.61 462.14 359.41 459.99C358.68 459.69 357.73 459.42 356.55 459.36H346.84C345.9 459.36 345.13 460.12 345.13 461.07V461.06Z" fill="white"/>
<path d="M326.51 454.68V476.45C325.53 469.61 324.29 464.64 319.33 460.58C317.56 459.13 315.75 458.4 313.87 458.4C311.74 458.4 309.98 459.38 308.59 461.35C307.2 463.31 306.5 465.55 306.5 468.06C306.5 469.98 306.94 471.73 307.82 473.3C309.09 475.62 312.11 478.71 316.87 482.58C320.76 485.74 323.41 488.16 324.84 489.84C326.26 491.53 327.36 493.51 328.12 495.8C328.89 498.09 329.27 500.49 329.27 502.99C329.27 507.76 328.05 511.86 325.6 515.31C323.15 518.76 320.01 520.49 316.16 520.49C314.95 520.49 313.82 520.35 312.75 520.07C312.12 519.92 310.7 519.53 308.81 518.38C306.13 516.75 303.19 515.36 302.01 520.49V498.91C302.54 503.43 305.29 511.52 309.42 514.64C311.31 516.07 313.3 516.87 315.51 516.87C318.07 516.87 320.09 515.85 321.57 513.81C323.05 511.77 323.8 509.35 323.8 506.57C323.8 505.02 323.52 503.46 322.96 501.88C322.4 500.3 321.52 498.83 320.34 497.47C319.54 496.54 317.36 494.57 313.8 491.55C310.24 488.53 307.71 486.13 306.2 484.33C304.7 482.54 303.56 480.56 302.78 478.39C302 476.22 301.61 473.84 301.61 471.24C301.61 466.72 302.76 462.83 305.05 459.57C307.34 456.31 310.26 454.67 313.8 454.67C317.34 454.67 319.97 456.52 320.83 457.13C322.93 458.61 323.38 459.8 324.3 459.63C325.54 459.4 326.17 456.97 326.51 454.67V454.68Z" fill="white"/>
<path d="M440.48 454.68V476.45C439.5 469.61 438.26 464.64 433.3 460.58C431.53 459.13 429.72 458.4 427.84 458.4C425.71 458.4 423.95 459.38 422.56 461.35C421.17 463.31 420.47 465.55 420.47 468.06C420.47 469.98 420.91 471.73 421.79 473.3C423.06 475.62 426.08 478.71 430.84 482.58C434.73 485.74 437.38 488.16 438.81 489.84C440.23 491.53 441.33 493.51 442.09 495.8C442.86 498.09 443.24 500.49 443.24 502.99C443.24 507.76 442.02 511.86 439.57 515.31C437.12 518.76 433.98 520.49 430.13 520.49C428.92 520.49 427.79 520.35 426.72 520.07C426.09 519.92 424.67 519.53 422.78 518.38C420.1 516.75 417.16 515.36 415.98 520.49V498.91C416.51 503.43 419.26 511.52 423.39 514.64C425.28 516.07 427.27 516.87 429.48 516.87C432.04 516.87 434.06 515.85 435.54 513.81C437.02 511.77 437.77 509.35 437.77 506.57C437.77 505.02 437.49 503.46 436.93 501.88C436.37 500.3 435.49 498.83 434.31 497.47C433.51 496.54 431.33 494.57 427.77 491.55C424.21 488.53 421.68 486.13 420.17 484.33C418.67 482.54 417.53 480.56 416.75 478.39C415.97 476.22 415.58 473.84 415.58 471.24C415.58 466.72 416.73 462.83 419.02 459.57C421.31 456.31 424.23 454.67 427.77 454.67C431.31 454.67 433.94 456.52 434.8 457.13C436.9 458.61 437.35 459.8 438.27 459.63C439.51 459.4 440.14 456.97 440.48 454.67V454.68Z" fill="white"/>
<path d="M408.83 455.92L409.29 470.68C409.03 465.73 408.53 461.64 405.11 460.32C404.4 460.05 403.63 459.87 402.18 459.87H396.67C395.55 459.87 394.65 460.77 394.65 461.89V507.95C394.65 516.85 394.83 517.28 400.51 518.86H382.86C386.787 517.6 388.75 513.963 388.75 507.95V461.89C388.75 460.77 387.85 459.87 386.73 459.87H382.43C380.94 459.87 380.7 459.88 380.05 460.06C374.48 461.57 374.42 470.25 374.35 470.69L374.84 455.93H408.82L408.83 455.92Z" fill="white"/>
<path d="M388.65 229.09H397.97C399.19 229.09 400.3 229.76 400.88 230.83L424.28 274.24C424.57 274.78 425.39 274.57 425.39 273.96V240C425.39 231.37 425.1 230.93 419.5 229.09H433.99C428.63 230.66 428.1 231.46 428.1 240V293.05L400.65 244.32C400.35 243.79 399.55 244 399.55 244.61V281.12C399.55 290.25 399.85 290.48 405.44 292.03H390.95C396.42 290.76 396.84 290.52 396.84 281.12V237.35C396.84 233.47 394.67 230.7 388.64 229.09H388.65Z" fill="white"/>
<path d="M334 227.28V249.05C333.02 242.21 331.78 237.24 326.82 233.18C325.05 231.73 323.24 231 321.36 231C319.23 231 317.47 231.98 316.08 233.95C314.69 235.91 313.99 238.15 313.99 240.66C313.99 242.58 314.43 244.33 315.31 245.9C316.58 248.22 319.6 251.31 324.36 255.18C328.25 258.34 330.9 260.76 332.33 262.44C333.75 264.13 334.85 266.11 335.61 268.4C336.38 270.69 336.76 273.09 336.76 275.59C336.76 280.36 335.54 284.46 333.09 287.91C330.64 291.36 327.5 293.09 323.65 293.09C322.44 293.09 321.31 292.95 320.24 292.67C319.61 292.52 318.19 292.13 316.3 290.98C313.62 289.35 310.68 287.96 309.5 293.09V271.51C310.03 276.03 312.78 284.12 316.91 287.24C318.8 288.67 320.79 289.47 323 289.47C325.56 289.47 327.58 288.45 329.06 286.41C330.54 284.37 331.29 281.95 331.29 279.17C331.29 277.62 331.01 276.06 330.45 274.48C329.89 272.9 329.01 271.43 327.83 270.07C327.03 269.14 324.85 267.17 321.29 264.15C317.73 261.13 315.2 258.73 313.69 256.93C312.19 255.14 311.05 253.16 310.27 250.99C309.49 248.82 309.1 246.44 309.1 243.84C309.1 239.32 310.25 235.43 312.54 232.17C314.83 228.91 317.75 227.27 321.29 227.27C324.83 227.27 327.46 229.12 328.32 229.73C330.42 231.21 330.87 232.4 331.79 232.23C333.03 232 333.66 229.57 334 227.27V227.28Z" fill="white"/>
<path d="M371.03 228.86H385.76C380.36 230.71 379.77 231.21 379.77 240.37V265.9C379.77 272.21 379.36 277.11 378.53 280.59C377.7 284.07 376.07 287.06 373.65 289.55C371.23 292.04 367.93 293.29 363.75 293.29C359.21 293.29 355.76 292.1 353.41 289.72C351.06 287.34 349.39 284.13 348.41 280.11C347.76 277.36 347.43 272.19 347.43 264.61V240.01C347.43 230.67 346.95 230.54 341.38 228.87H359.37C352.94 230.93 353.27 230.9 353.32 240.01V267.44C353.32 269.88 353.47 272.68 353.77 275.84C354.07 279 354.6 281.46 355.38 283.22C356.16 284.98 357.28 286.44 358.74 287.58C360.2 288.72 362 289.3 364.13 289.3C366.85 289.3 369.29 288.4 371.44 286.61C373.59 284.82 375.06 282.52 375.84 279.72C376.63 276.92 377.02 272.18 377.02 265.49V240.01C377.02 230.83 376.39 230.5 371.03 228.87V228.86Z" fill="white"/>
<path d="M328.31 348.93V370.4C328.31 371.34 329.07 372.11 330.02 372.11H337.46C338.41 372.11 339.73 371.96 341.04 371.23C345.19 368.93 345.14 363.21 345.13 362.97V384.88C345.19 381.04 343.56 377.67 340.78 376.25C339.64 375.67 338.47 375.49 337.46 375.5H330.02C329.08 375.5 328.31 376.26 328.31 377.21V396.25C328.31 397.15 328.31 399.78 328.29 401.53C328.29 402.45 329.02 403.21 329.94 403.25C330.69 403.28 331.47 403.31 331.74 403.31H338.8C340.13 403.37 341.26 403.2 342.18 402.94C349.28 400.98 351.81 392.12 352.12 390.96L348.53 406.74H316.45C317.13 406.39 317.83 405.94 318.5 405.36C322.2 402.14 322.41 400.43 322.41 395.64V354.75C322.41 350.21 322.87 346.59 318.4 344.35C317.89 344.09 317.25 343.88 316.46 343.8H348.54L349 357.58C348.88 356.77 347.79 350.01 342.59 347.86C341.86 347.56 340.91 347.29 339.73 347.23H330.02C329.08 347.23 328.31 347.99 328.31 348.94V348.93Z" fill="white"/>
<path d="M410.63 348.93V370.4C410.63 371.34 411.39 372.11 412.34 372.11H419.78C420.73 372.11 422.05 371.96 423.36 371.23C427.51 368.93 427.46 363.21 427.45 362.97V384.88C427.51 381.04 425.88 377.67 423.1 376.25C421.96 375.67 420.79 375.49 419.78 375.5H412.34C411.4 375.5 410.63 376.26 410.63 377.21V396.25C410.63 397.15 410.63 399.78 410.61 401.53C410.61 402.45 411.34 403.21 412.26 403.25C413.01 403.28 413.79 403.31 414.06 403.31H421.12C422.45 403.37 423.58 403.2 424.5 402.94C431.6 400.98 434.13 392.12 434.44 390.96L430.85 406.74H398.77C399.45 406.39 400.15 405.94 400.82 405.36C404.52 402.14 404.73 400.43 404.73 395.64V354.75C404.73 350.21 405.19 346.59 400.72 344.35C400.21 344.09 399.57 343.88 398.78 343.8H430.86L431.32 357.58C431.2 356.77 430.11 350.01 424.91 347.86C424.18 347.56 423.23 347.29 422.05 347.23H412.34C411.4 347.23 410.63 347.99 410.63 348.94V348.93Z" fill="white"/>
<path d="M267.06 344.17H276.38C277.6 344.17 278.71 344.84 279.29 345.91L302.69 389.32C302.98 389.86 303.8 389.65 303.8 389.04V355.08C303.8 346.45 303.51 346.01 297.91 344.17H312.4C307.04 345.74 306.51 346.54 306.51 355.08V408.13L279.06 359.4C278.76 358.87 277.96 359.08 277.96 359.69V396.2C277.96 405.33 278.26 405.56 283.85 407.11H269.36C274.83 405.84 275.25 405.6 275.25 396.2V352.43C275.25 348.55 273.08 345.78 267.05 344.17H267.06Z" fill="white"/>
<path d="M476.02 406.73H467.32C465.85 406.73 464.51 405.89 463.87 404.56L451.05 377.79C450.91 377.5 450.61 377.31 450.28 377.31H447.31C446.84 377.31 446.46 377.69 446.46 378.16V395.6C446.46 403.14 446.78 405.24 452.45 406.74H434.62C440.39 405.46 440.61 404.71 440.61 395.6V354.94C440.61 345.84 440.42 345.62 434.62 343.8H449.78C454.2 343.8 457.46 344.29 459.56 345.26C461.66 346.23 463.44 348.03 464.9 350.64C466.36 353.25 467.09 356.37 467.09 359.99C467.09 363.86 466.26 367.21 464.59 370.06C463.12 372.56 460.95 374.42 458.07 375.63C457.41 375.91 457.12 376.67 457.42 377.31L465.43 394.14C467.39 398.29 471.22 406.53 476.02 406.72V406.73ZM446.46 372.67C446.46 373.62 447.22 374.42 448.17 374.42C452.14 374.42 456.12 373.97 458.13 371.37C460.14 368.77 460.17 364.61 460.17 360.59C460.17 356.57 460.66 352.27 459.03 349.81C457.4 347.35 455.81 346.66 451.38 346.14C450.39 346.02 449.43 345.99 448.06 346.09C447.15 346.16 446.45 346.93 446.45 347.84V372.67H446.46Z" fill="white"/>
<path d="M396.2 343.96C392.72 344.67 393.24 344.74 389.97 354.77L375.45 408.33L358.72 354.07C355.83 345.79 355.76 345.36 352.12 343.95H369.12C365.01 344.75 363.24 345.25 364.19 349.79C364.51 351.3 364.99 353.85 365.93 357.13L375.32 389.85C375.66 391.03 377.33 391.01 377.65 389.83L386.34 357.59C387.3 354 387.6 351.5 387.78 350.12C388.36 345.75 387.25 344.67 383.36 343.95H396.19L396.2 343.96Z" fill="white"/>
<path d="M631.24 344.04C625.21 291.91 603.61 243.29 568.72 203.66C564.05 198.36 563.92 190.46 568.51 185.1L597.94 150.68L563.53 180.11C558.16 184.7 550.27 184.57 544.97 179.9C505.33 145.01 456.71 123.41 404.58 117.37C389.71 115.65 378.34 103.3 377.75 88.34L374.31 0L370.87 88.34C370.29 103.3 358.92 115.65 344.04 117.37C291.91 123.4 243.28 145 203.65 179.9C198.35 184.57 190.45 184.69 185.09 180.11L150.68 150.68L180.11 185.1C184.7 190.47 184.57 198.36 179.9 203.66C145 243.29 123.4 291.92 117.37 344.05C115.65 358.92 103.3 370.29 88.34 370.87L0 374.31L88.34 377.74C103.3 378.32 115.65 389.69 117.37 404.57C123.4 456.71 145 505.33 179.9 544.96C184.57 550.26 184.7 558.16 180.11 563.52L150.68 597.93L185.09 568.5C190.46 563.91 198.35 564.04 203.65 568.71C243.29 603.61 291.91 625.2 344.05 631.24C358.92 632.96 370.29 645.31 370.87 660.27L374.31 748.61L377.75 660.27C378.33 645.31 389.7 632.96 404.57 631.24C456.7 625.2 505.33 603.61 544.97 568.71C550.27 564.04 558.17 563.91 563.53 568.5L597.94 597.93L568.51 563.52C563.92 558.15 564.05 550.26 568.72 544.96C603.62 505.33 625.21 456.71 631.24 404.57C632.96 389.7 645.31 378.32 660.27 377.74L748.61 374.31L660.26 370.87C645.3 370.29 632.95 358.92 631.23 344.04H631.24ZM621.27 411.33C614.39 457.94 594.52 501.35 563.47 537.29C558.4 543.16 549.53 543.82 543.64 538.78L510.14 510.14L538.78 543.64C543.82 549.53 543.16 558.4 537.3 563.47C501.36 594.53 457.95 614.39 411.34 621.27C393.86 623.85 377.82 611.15 376.45 593.53L374.31 566.05L372.17 593.53C370.8 611.15 354.77 623.85 337.28 621.27C290.67 614.39 247.25 594.52 211.32 563.47C205.45 558.4 204.8 549.53 209.84 543.64L238.48 510.14L204.98 538.78C199.09 543.82 190.22 543.16 185.15 537.29C154.09 501.35 134.23 457.94 127.35 411.33C124.77 393.84 137.47 377.81 155.09 376.44L182.57 374.31L155.08 372.17C137.46 370.8 124.76 354.77 127.34 337.28C134.22 290.67 154.08 247.25 185.15 211.32C190.22 205.46 199.09 204.8 204.98 209.84L238.48 238.48L209.84 204.98C204.8 199.09 205.46 190.22 211.33 185.15C247.26 154.1 290.68 134.24 337.29 127.36C354.78 124.78 370.81 137.48 372.18 155.1L374.31 182.57L376.45 155.1C377.82 137.48 393.85 124.78 411.34 127.36C457.95 134.24 501.37 154.1 537.3 185.15C543.17 190.22 543.83 199.09 538.79 204.98L510.15 238.48L543.65 209.84C549.54 204.8 558.41 205.46 563.48 211.32C594.54 247.25 614.4 290.67 621.28 337.28C623.86 354.76 611.16 370.79 593.54 372.17L566.06 374.31L593.53 376.44C611.15 377.81 623.86 393.84 621.27 411.33Z" fill="white"/>
</g>
<defs>
<clipPath id="clip0_178_537">
<rect width="748.62" height="748.61" fill="white"/>
</clipPath>
</defs>
</svg>
