<svg width="749" height="749" viewBox="0 0 749 749" fill="none" xmlns="http://www.w3.org/2000/svg">
<g clip-path="url(#clip0_324_4)">
<path d="M309.83 361.296H300.284C301.55 360.961 302.48 359.839 302.854 359.297C303.616 358.214 304.346 355.455 305.27 352.147L315.933 314.482C319.712 327.17 323.49 339.865 327.268 352.553C327.849 354.526 328.902 357.073 330.885 359.542C331.408 360.2 331.951 360.78 332.474 361.296H320.512C321.604 360.599 323.522 359.142 323.6 357.247C323.619 356.744 323.516 356.138 323.374 355.332C323.173 354.159 322.909 353.204 322.702 352.553L321.081 346.744C320.952 346.286 320.538 345.97 320.06 345.97H309.927C309.455 345.97 309.042 346.286 308.906 346.738L307.065 353.191C306.562 354.971 306.303 357.176 306.303 357.176C306.265 357.524 306.206 358.562 306.859 359.574C307.84 361.109 309.597 361.276 309.817 361.296H309.83ZM320.067 342.811L315.61 326.77C315.468 326.261 314.745 326.261 314.603 326.77L310.03 342.811C309.933 343.147 310.185 343.475 310.534 343.475H319.569C319.918 343.475 320.17 343.147 320.073 342.811H320.067Z" fill="white"/>
<path d="M505.457 360.161C506.736 360.161 508.79 358.291 509.326 357.053C509.655 356.312 509.817 354.649 509.817 352.057V322.496C509.817 319.639 509.61 317.847 509.19 317.131C508.609 316.139 506.607 314.398 505.457 314.398H517.799C522.333 314.398 525.776 315.171 528.14 316.725C530.504 318.279 532.403 320.864 533.843 324.488C535.283 328.111 536 332.296 536 337.041C536 343.411 534.721 348.73 532.157 353.005C529.283 357.776 524.898 360.161 519.007 360.161H505.457ZM514.112 352.94C514.112 355.571 516.204 357.788 518.833 357.801C518.846 357.801 518.859 357.801 518.872 357.801C522.327 357.801 525.201 355.97 527.481 352.302C529.761 348.633 530.904 343.662 530.904 337.383C530.904 331.103 529.761 326.074 527.481 322.431C525.201 318.788 522.269 316.964 518.691 316.964H518.652C516.14 316.964 514.112 319.001 514.112 321.509V352.94Z" fill="white"/>
<path d="M461.389 394.957V410.566C461.389 411.25 461.945 411.804 462.629 411.804H468.048C468.739 411.804 469.702 411.695 470.658 411.166C473.687 409.49 473.641 405.331 473.635 405.157V421.089C473.68 418.297 472.492 415.847 470.464 414.815C469.631 414.39 468.778 414.267 468.048 414.274H462.629C461.945 414.274 461.389 414.828 461.389 415.512V429.361C461.389 430.012 461.383 431.927 461.376 433.197C461.376 433.867 461.906 434.422 462.578 434.448C463.127 434.467 463.695 434.486 463.895 434.486H469.036C470.005 434.531 470.825 434.402 471.497 434.215C476.671 432.791 478.511 426.343 478.737 425.505L476.122 436.981H452.754C453.251 436.73 453.762 436.401 454.246 435.982C456.939 433.642 457.094 432.397 457.094 428.916V399.18C457.094 395.879 457.43 393.242 454.175 391.618C453.8 391.431 453.335 391.276 452.76 391.218H476.128L476.464 401.244C476.38 400.65 475.579 395.738 471.794 394.171C471.265 393.952 470.567 393.758 469.708 393.713H462.629C461.945 393.713 461.389 394.268 461.389 394.951V394.957Z" fill="white"/>
<path d="M294.09 394.964V410.392C294.09 411.102 294.665 411.669 295.369 411.669H299.612C300.62 411.695 301.33 411.424 301.743 411.205C303.552 410.27 304.566 407.981 304.392 405.389V420.882C304.547 418.168 303.494 415.802 301.634 414.886C301.214 414.68 300.542 414.441 299.606 414.467H295.362C294.652 414.467 294.083 415.041 294.083 415.744V428.845C294.083 433.899 295.104 435.15 296.099 435.911C296.88 436.511 298.469 436.943 298.469 436.943H285.455C285.842 436.865 286.184 436.743 286.482 436.594C289.743 434.989 289.795 429.567 289.788 428.845V399.277C289.788 394.28 288.361 392.578 286.243 391.515C285.907 391.347 285.874 391.328 285.455 391.173H308.015L308.305 401.231C308.241 400.76 307.472 395.828 303.545 394.184C302.564 393.771 301.595 393.655 300.768 393.674H295.362C294.652 393.674 294.083 394.248 294.083 394.951L294.09 394.964Z" fill="white"/>
<path d="M224.988 357.846H212C216.256 356.415 216.34 355.893 216.34 349.749V320.181C216.34 315.866 214.893 313.166 212 312.083H224.988C222.082 313.166 220.629 315.866 220.629 320.181V349.749C220.629 355.035 220.835 356.589 224.988 357.846Z" fill="white"/>
<path d="M364.922 424.531L362.326 436.949H338.849C343.234 435.408 343.208 434.95 343.208 428.813V399.277C343.208 392.404 342.679 392.25 338.849 391.179H352.58C347.891 392.288 347.503 392.327 347.503 400.057V428.813C347.503 430.682 347.619 431.965 347.858 432.662C348.039 433.132 348.311 433.48 348.685 433.706C349.06 433.932 350.222 434.041 352.173 434.041H354.388C355.596 434.093 356.597 433.912 357.372 433.674C362.862 432.004 364.696 425.376 364.916 424.525L364.922 424.531Z" fill="white"/>
<path d="M494.245 348.382L491.648 360.799H468.171C472.556 359.258 472.531 358.801 472.531 352.663V323.14C472.531 316.267 472.001 316.113 468.171 315.042H481.902C477.213 316.151 476.826 316.19 476.826 323.92V352.676C476.826 354.545 476.942 355.828 477.181 356.525C477.362 356.995 477.633 357.344 478.007 357.569C478.382 357.795 479.545 357.904 481.495 357.904H483.71C484.918 357.956 485.919 357.776 486.694 357.537C492.184 355.867 494.019 349.239 494.238 348.388L494.245 348.382Z" fill="white"/>
<path d="M231.047 315.307H237.835C238.72 315.307 239.533 315.79 239.953 316.571L257.004 348.143C257.217 348.536 257.811 348.382 257.811 347.943V323.237C257.811 316.964 257.598 316.641 253.516 315.307H264.07C260.162 316.448 259.775 317.028 259.775 323.237V361.818L239.779 326.383C239.566 326.003 238.978 326.151 238.978 326.596V353.146C238.978 359.781 239.197 359.955 243.273 361.077H232.719C236.704 360.155 237.014 359.981 237.014 353.146V321.316C237.014 318.492 235.432 316.48 231.047 315.307Z" fill="white"/>
<path d="M390.131 389.032C394.064 389.032 397.474 391.289 400.361 395.802C403.248 400.315 404.688 405.944 404.688 412.694C404.688 419.445 403.235 425.421 400.329 430.012C397.422 434.602 393.902 436.898 389.775 436.898C385.648 436.898 382.096 434.66 379.254 430.179C376.412 425.698 374.991 419.909 374.991 412.797C374.991 405.686 376.632 399.6 379.913 395.009C382.761 391.025 386.165 389.032 390.131 389.032ZM389.704 390.206C386.992 390.206 384.815 393.017 383.175 396.054C381.134 399.832 380.113 405.37 380.113 412.662C380.113 419.954 381.172 425.879 383.291 429.909C384.918 432.971 387.063 435.789 389.73 435.789C392.578 435.789 394.929 432.823 396.783 429.47C398.637 426.118 399.567 420.831 399.567 413.61C399.567 405.776 398.546 399.941 396.505 396.092C394.865 393.03 392.598 390.212 389.711 390.212L389.704 390.206Z" fill="white"/>
<path d="M261.331 390.141C265.265 390.141 268.675 392.398 271.562 396.911C274.449 401.424 275.889 407.053 275.889 413.803C275.889 420.553 274.436 426.53 271.53 431.121C268.623 435.711 265.103 438.006 260.976 438.006C256.849 438.006 253.297 435.769 250.455 431.288C247.613 426.807 246.192 421.018 246.192 413.906C246.192 406.795 247.833 400.709 251.114 396.118C253.962 392.134 257.366 390.141 261.331 390.141ZM260.905 391.315C258.193 391.315 256.016 394.126 254.375 397.162C252.334 400.941 251.314 406.479 251.314 413.771C251.314 421.063 252.373 426.988 254.492 431.018C256.119 434.08 258.264 436.898 260.931 436.898C263.779 436.898 266.13 433.932 267.984 430.579C269.838 427.226 270.768 421.94 270.768 414.719C270.768 406.885 269.747 401.05 267.706 397.201C266.066 394.139 263.799 391.321 260.912 391.321L260.905 391.315Z" fill="white"/>
<path d="M415.558 311C419.492 311 422.902 313.257 425.789 317.77C428.676 322.283 430.116 327.911 430.116 334.662C430.116 341.412 428.663 347.389 425.757 351.979C422.85 356.57 419.33 358.865 415.203 358.865C411.076 358.865 407.524 356.628 404.682 352.147C401.84 347.666 400.419 341.876 400.419 334.765C400.419 327.654 402.06 321.567 405.341 316.977C408.189 312.992 411.593 311 415.558 311ZM415.132 312.173C412.419 312.173 410.243 314.984 408.602 318.021C406.561 321.799 405.541 327.338 405.541 334.63C405.541 341.922 406.6 347.847 408.719 351.876C410.346 354.939 412.491 357.756 415.158 357.756C418.006 357.756 420.357 354.79 422.211 351.438C424.064 348.085 424.995 342.798 424.995 335.577C424.995 327.744 423.974 321.909 421.933 318.06C420.293 314.997 418.026 312.18 415.139 312.18L415.132 312.173Z" fill="white"/>
<path d="M460.278 360.774H453.936C452.864 360.774 451.889 360.161 451.423 359.194L442.084 339.723C441.981 339.51 441.761 339.375 441.529 339.375H439.365C439.023 339.375 438.745 339.652 438.745 339.994V352.676C438.745 358.162 438.978 359.69 443.105 360.774H430.116C434.321 359.839 434.476 359.297 434.476 352.676V323.102C434.476 316.48 434.334 316.326 430.116 315.004H441.161C444.384 315.004 446.754 315.358 448.285 316.068C449.815 316.777 451.107 318.079 452.173 319.981C453.238 321.883 453.774 324.153 453.774 326.783C453.774 329.594 453.167 332.038 451.953 334.107C450.887 335.925 449.299 337.279 447.2 338.156C446.722 338.356 446.508 338.911 446.728 339.381L452.567 351.625C454.001 354.642 456.784 360.632 460.278 360.774ZM438.745 336.009C438.745 336.699 439.301 337.279 439.992 337.286C442.885 337.286 445.785 336.957 447.251 335.068C448.717 333.179 448.737 330.149 448.737 327.228C448.737 324.307 449.092 321.174 447.91 319.388C446.728 317.602 445.565 317.099 442.336 316.719C441.619 316.635 440.915 316.609 439.921 316.687C439.255 316.738 438.745 317.293 438.745 317.957V336.016V336.009Z" fill="white"/>
<path d="M443.847 390.696C441.309 391.212 441.69 391.263 439.307 398.562L428.728 437.51L416.54 398.052C414.435 392.03 414.383 391.721 411.735 390.696H424.123C421.126 391.276 419.841 391.637 420.532 394.938C420.764 396.041 421.113 397.891 421.797 400.277L428.637 424.074C428.883 424.931 430.103 424.918 430.336 424.061L436.665 400.618C437.363 398.007 437.583 396.189 437.718 395.183C438.138 392.005 437.331 391.218 434.495 390.696H443.841H443.847Z" fill="white"/>
<path d="M400.419 315.152C398.779 315.698 397.668 317.127 397.087 319.44C396.88 320.258 396.318 322.109 395.679 325.075L387.224 361.966L379.971 334.771C379.829 334.23 379.054 334.243 378.931 334.784L372.556 361.96L362.739 323.953C361.443 318.7 359.915 315.765 358.154 315.146H369.379C367.816 315.584 366.053 315.887 366.408 319.162C366.524 320.239 366.388 319.485 367.39 324.597L372.834 348.021C372.963 348.575 373.751 348.575 373.881 348.021L378.137 329.536C378.305 328.821 378.305 328.073 378.137 327.351L377.497 324.597L376.78 321.529C375.463 315.881 375.153 315.771 372.556 315.152H384.363C383.252 315.313 381.011 316.487 381.14 319.407C381.205 320.768 381.153 320.632 382.148 325.416L387.431 348.034C387.56 348.588 388.348 348.588 388.477 348.034L393.728 325.081C394.387 322.289 394.71 320.355 394.71 319.278C395.097 316.596 394.335 315.468 391.358 315.159H400.413L400.419 315.152Z" fill="white"/>
</g>
<path d="M631.24 344.04C625.21 291.91 603.61 243.29 568.72 203.66C564.05 198.36 563.92 190.46 568.51 185.1L597.94 150.68L563.53 180.11C558.16 184.7 550.27 184.57 544.97 179.9C505.33 145.01 456.71 123.41 404.58 117.37C389.71 115.65 378.34 103.3 377.75 88.34L374.31 0L370.87 88.34C370.29 103.3 358.92 115.65 344.04 117.37C291.91 123.4 243.28 145 203.65 179.9C198.35 184.57 190.45 184.69 185.09 180.11L150.68 150.68L180.11 185.1C184.7 190.47 184.57 198.36 179.9 203.66C145 243.29 123.4 291.92 117.37 344.05C115.65 358.92 103.3 370.29 88.34 370.87L0 374.31L88.34 377.74C103.3 378.32 115.65 389.69 117.37 404.57C123.4 456.71 145 505.33 179.9 544.96C184.57 550.26 184.7 558.16 180.11 563.52L150.68 597.93L185.09 568.5C190.46 563.91 198.35 564.04 203.65 568.71C243.29 603.61 291.91 625.2 344.05 631.24C358.92 632.96 370.29 645.31 370.87 660.27L374.31 748.61L377.75 660.27C378.33 645.31 389.7 632.96 404.57 631.24C456.7 625.2 505.33 603.61 544.97 568.71C550.27 564.04 558.17 563.91 563.53 568.5L597.94 597.93L568.51 563.52C563.92 558.15 564.05 550.26 568.72 544.96C603.62 505.33 625.21 456.71 631.24 404.57C632.96 389.7 645.31 378.32 660.27 377.74L748.61 374.31L660.26 370.87C645.3 370.29 632.95 358.92 631.23 344.04H631.24ZM621.27 411.33C614.39 457.94 594.52 501.35 563.47 537.29C558.4 543.16 549.53 543.82 543.64 538.78L510.14 510.14L538.78 543.64C543.82 549.53 543.16 558.4 537.3 563.47C501.36 594.53 457.95 614.39 411.34 621.27C393.86 623.85 377.82 611.15 376.45 593.53L374.31 566.05L372.17 593.53C370.8 611.15 354.77 623.85 337.28 621.27C290.67 614.39 247.25 594.52 211.32 563.47C205.45 558.4 204.8 549.53 209.84 543.64L238.48 510.14L204.98 538.78C199.09 543.82 190.22 543.16 185.15 537.29C154.09 501.35 134.23 457.94 127.35 411.33C124.77 393.84 137.47 377.81 155.09 376.44L182.57 374.31L155.08 372.17C137.46 370.8 124.76 354.77 127.34 337.28C134.22 290.67 154.08 247.25 185.15 211.32C190.22 205.46 199.09 204.8 204.98 209.84L238.48 238.48L209.84 204.98C204.8 199.09 205.46 190.22 211.33 185.15C247.26 154.1 290.68 134.24 337.29 127.36C354.78 124.78 370.81 137.48 372.18 155.1L374.31 182.57L376.45 155.1C377.82 137.48 393.85 124.78 411.34 127.36C457.95 134.24 501.37 154.1 537.3 185.15C543.17 190.22 543.83 199.09 538.79 204.98L510.15 238.48L543.65 209.84C549.54 204.8 558.41 205.46 563.48 211.32C594.54 247.25 614.4 290.67 621.28 337.28C623.86 354.76 611.16 370.79 593.54 372.17L566.06 374.31L593.53 376.44C611.15 377.81 623.86 393.84 621.27 411.33Z" fill="white"/>
<defs>
<clipPath id="clip0_324_4">
<rect width="324" height="127" fill="white" transform="translate(212 311)"/>
</clipPath>
</defs>
</svg>
